<svg id="Capa_1" data-name="Capa 1" xmlns="http://www.w3.org/2000/svg" viewBox="0 0 149.44 35.14"><defs><style>.cls-1{fill:#fff;}</style></defs><title>be-logo-white</title><path class="cls-1" d="M575,2051.95a8.21,8.21,0,0,0-6.08,2.7v-17.54h-3.61v34.23h3.61v-2.23a8.21,8.21,0,0,0,6.08,2.7A9.93,9.93,0,0,0,575,2051.95Zm4.4,14.32a6.26,6.26,0,0,1-8.81,0,5.81,5.81,0,0,1-1.67-3v-2.81a5.81,5.81,0,0,1,1.67-3A6.22,6.22,0,1,1,579.37,2066.27Zm24.62-1.08q-0.7.84-.92,1.08a6,6,0,0,1-4.41,1.81,5.06,5.06,0,0,1-3.29-.8l9.5-9.5,1.81-1.83q-0.82-.92-1-1.1-0.42-.42-0.85-0.78a9.94,9.94,0,1,0,.85,14.83,23.22,23.22,0,0,0,1.92-2.42Zm-11.53-3.31a6.21,6.21,0,0,1,6.2-6.22,5.11,5.11,0,0,1,2.73.47l-8.47,8.49A5.16,5.16,0,0,1,592.45,2061.88Z" transform="translate(-565.28 -2036.67)"/><path class="cls-1" d="M596.17,2045.19v-8.51h3.61v8.51h-3.61Z" transform="translate(-565.28 -2036.67)"/><path class="cls-1" d="M612,2051.27l7.28-4.42,1.87,3.08-7.28,4.42Z" transform="translate(-565.28 -2036.67)"/><path class="cls-1" d="M615.31,2067.71h8.51v3.61h-8.51v-3.61Z" transform="translate(-565.28 -2036.67)"/><rect class="cls-1" x="70.58" y="0.61" width="1.18" height="12.1"/><path class="cls-1" d="M636.46,2052a1,1,0,0,0,.7-0.28,1,1,0,0,0,.29-0.7,0.94,0.94,0,0,0-.29-0.7,1,1,0,0,0-1.39,0,0.94,0.94,0,0,0-.29.69,1,1,0,0,0,.29.7A1,1,0,0,0,636.46,2052Z" transform="translate(-565.28 -2036.67)"/><path class="cls-1" d="M642.49,2044.92a2.86,2.86,0,0,1,.58-0.8,2.51,2.51,0,0,1,3.53,0,2.34,2.34,0,0,1,.74,1.75v5.94h1.18v-6a3.68,3.68,0,0,0-6-2.75v-0.32h-1.18v9.07h1.18v-6.9Z" transform="translate(-565.28 -2036.67)"/><path class="cls-1" d="M657,2051.23a2.78,2.78,0,0,0,0-3.92,7.56,7.56,0,0,0-1.64-1.12,6.15,6.15,0,0,1-.9-0.65,1.1,1.1,0,0,1,.78-1.88,1,1,0,0,1,.74.28,1.54,1.54,0,0,1,.37.9l0,0.24,0.92-.37,0.12-.09v-0.13a2,2,0,0,0-.6-1.4,2.14,2.14,0,0,0-1.57-.62,2.19,2.19,0,0,0-1.61.67,2.22,2.22,0,0,0-.67,1.62,2.2,2.2,0,0,0,.67,1.6,6.43,6.43,0,0,0,1.44,1,7.54,7.54,0,0,1,1.11.81,1.52,1.52,0,0,1,.47,1.12,1.6,1.6,0,0,1-2.72,1.14,1.56,1.56,0,0,1-.47-1.17V2049l-1.17.3v0.15a2.51,2.51,0,0,0,.81,1.79A2.77,2.77,0,0,0,657,2051.23Z" transform="translate(-565.28 -2036.67)"/><path class="cls-1" d="M666.44,2042a4.9,4.9,0,0,0-3.57,1.47l-0.18.19v-0.88h-1.18v12.39h1.18v-4.74l0.18,0.19A5.05,5.05,0,1,0,666.44,2042Zm0,8.88a3.86,3.86,0,0,1-3.75-3v-1.63A3.83,3.83,0,1,1,666.44,2050.85Z" transform="translate(-565.28 -2036.67)"/><rect class="cls-1" x="110.03" y="6.08" width="1.18" height="9.07"/><path class="cls-1" d="M675.9,2041.64a1,1,0,0,0,1-1,0.94,0.94,0,0,0-.29-0.69,1,1,0,0,0-1.39,0,1,1,0,0,0,0,1.4A1,1,0,0,0,675.9,2041.64Z" transform="translate(-565.28 -2036.67)"/><path class="cls-1" d="M682.18,2043.71l-0.25.26v-1.22h-1.18v9.07h1.18v-4.67a3.65,3.65,0,0,1,1.12-2.57,2.29,2.29,0,0,1,1.43-.79h0.18v-1.25h-0.2A3.51,3.51,0,0,0,682.18,2043.71Z" transform="translate(-565.28 -2036.67)"/><path class="cls-1" d="M689.51,2041.35a1,1,0,0,0,.29-0.7,0.94,0.94,0,0,0-.29-0.69,1,1,0,0,0-1.39,0,0.94,0.94,0,0,0-.29.69,1,1,0,0,0,1,1A1,1,0,0,0,689.51,2041.35Z" transform="translate(-565.28 -2036.67)"/><rect class="cls-1" x="122.94" y="6.08" width="1.18" height="9.07"/><path class="cls-1" d="M694.84,2044.92a2.83,2.83,0,0,1,.58-0.8,2.51,2.51,0,0,1,3.53,0,2.34,2.34,0,0,1,.74,1.75v5.94h1.18v-6a3.69,3.69,0,0,0-6-2.75v-0.32h-1.18v9.07h1.18v-6.9Z" transform="translate(-565.28 -2036.67)"/><path class="cls-1" d="M713.54,2042.75v0.88l-0.18-.19a5.06,5.06,0,1,0,0,7.15l0.05-.05a3.86,3.86,0,0,1-3.71,2.89,3.66,3.66,0,0,1-2.71-1.12l-0.27-.3-0.09-.1-1.21.43,0.15,0.21a5.17,5.17,0,0,0,.54.63,5.05,5.05,0,0,0,7.15,0,4.76,4.76,0,0,0,1.45-3.48v-6.94h-1.18Zm-3.75,8.1a3.82,3.82,0,1,1,3.75-4.66v1.64A3.86,3.86,0,0,1,709.79,2050.85Z" transform="translate(-565.28 -2036.67)"/><polygon class="cls-1" points="71.82 21.98 70.64 21.98 70.64 25.68 68.87 25.68 68.87 26.86 70.64 26.86 70.64 34.76 71.82 34.76 71.82 26.86 73.59 26.86 73.59 25.68 71.82 25.68 71.82 21.98"/><path class="cls-1" d="M646.94,2061.57a5,5,0,1,0,3.57,1.48A4.89,4.89,0,0,0,646.94,2061.57Zm0,8.88a3.82,3.82,0,1,1,2.7-6.52,3.82,3.82,0,0,1,0,5.41A3.71,3.71,0,0,1,646.94,2070.45Z" transform="translate(-565.28 -2036.67)"/><path class="cls-1" d="M660.06,2061.57a5,5,0,1,0,3.57,1.48A4.88,4.88,0,0,0,660.06,2061.57Zm0,8.88a3.82,3.82,0,1,1,2.71-1.12A3.7,3.7,0,0,1,660.06,2070.45Z" transform="translate(-565.28 -2036.67)"/><rect class="cls-1" x="103.39" y="20.22" width="1.18" height="14.54"/><path class="cls-1" d="M676.7,2065.78a5.65,5.65,0,0,1-.9-0.65,1,1,0,0,1-.33-0.78,1,1,0,0,1,.33-0.78,1.05,1.05,0,0,1,.78-0.32,1,1,0,0,1,.73.28,1.54,1.54,0,0,1,.37.9l0,0.24,0.92-.37,0.12-.09v-0.13a2,2,0,0,0-.6-1.4,2.13,2.13,0,0,0-1.57-.62,2.19,2.19,0,0,0-1.61.67,2.22,2.22,0,0,0-.67,1.62,2.2,2.2,0,0,0,.67,1.6,6.53,6.53,0,0,0,1.44,1,7.48,7.48,0,0,1,1.11.81,1.6,1.6,0,1,1-2.26,2.26,1.56,1.56,0,0,1-.47-1.17v-0.25l-1.17.3V2069a2.51,2.51,0,0,0,.81,1.79,2.77,2.77,0,0,0,3.92,0,2.79,2.79,0,0,0,0-3.92A7.56,7.56,0,0,0,676.7,2065.78Z" transform="translate(-565.28 -2036.67)"/><rect class="cls-1" x="123.53" y="29.35" width="25.72" height="1.2"/></svg>