<?xml version="1.0" encoding="utf-8"?>
<!-- Generator: Adobe Illustrator 24.3.0, SVG Export Plug-In . SVG Version: 6.00 Build 0)  -->
<svg version="1.1" id="Capa_2_1_" xmlns="http://www.w3.org/2000/svg" xmlns:xlink="http://www.w3.org/1999/xlink" x="0px" y="0px"
	 viewBox="0 0 855.6 292.9" style="enable-background:new 0 0 855.6 292.9;" xml:space="preserve">
<g id="Capa_1-2">
	<g>
		<path d="M22.2,80.4l0.8,8.4c-2.1,0.9-4.7,1.3-7.9,1.3s-5.7-0.3-7.6-1C5.6,88.5,4.1,87.4,3,86s-1.9-3.1-2.3-5.1S0,76.6,0,73.8
			s0.2-5.2,0.6-7.2S1.9,63,3,61.5c2.1-2.8,6-4.2,11.8-4.2c1.3,0,2.8,0.1,4.5,0.4s3,0.6,3.8,0.9l-1.5,7.6c-2.2-0.5-4.1-0.7-5.9-0.7
			s-3.1,0.2-3.8,0.5s-1.1,1-1.1,2v13.1c1.3,0.3,2.6,0.4,3.9,0.4C17.5,81.6,20,81.2,22.2,80.4z"/>
		<path d="M47.2,89.4h-20V58.2h10v23.2h10V89.4z"/>
		<path d="M58.1,89.4H47.5l8.1-31.2h15.4l8.1,31.2H68.6l-1.2-4.9h-8.2C59.2,84.5,58.1,89.4,58.1,89.4z M66.9,55.2L58.2,57l-2-2.8
			l9.4-7C65.8,47,66,47,66.2,47s0.5,0.2,0.8,0.5l3.2,3.7c0.3,0.3,0.4,0.6,0.4,0.8s0,0.4-0.1,0.5s-0.9,0.8-2.3,2.1
			C67.9,54.9,67.4,55.1,66.9,55.2L66.9,55.2z M63.1,67.8l-2,8.8h4.6l-2-8.8H63.1z"/>
		<path d="M80.6,88.8l1.4-8.2c3.1,0.8,5.8,1.2,8.3,1.2s4.4-0.1,5.9-0.3v-2.5l-4.5-0.4c-4.1-0.4-6.9-1.3-8.4-2.9
			c-1.5-1.6-2.3-3.9-2.3-7c0-4.3,0.9-7.2,2.8-8.8c1.8-1.6,5-2.4,9.4-2.4s8.4,0.4,12,1.2l-1.2,8c-3.1-0.5-5.6-0.8-7.4-0.8
			S93,66,91.7,66.1v2.4l3.6,0.3c4.4,0.4,7.4,1.5,9.1,3.1c1.7,1.7,2.5,3.9,2.5,6.9c0,2.1-0.3,3.9-0.8,5.3c-0.6,1.4-1.2,2.6-2,3.3
			s-1.9,1.3-3.3,1.7c-1.4,0.4-2.7,0.6-3.8,0.7c-1.1,0.1-2.5,0.1-4.3,0.1C88.3,90.2,84.2,89.7,80.6,88.8L80.6,88.8z"/>
		<path d="M111.3,89.4V58.2h10v31.2H111.3z"/>
		<path d="M147.8,80.4l0.8,8.4c-2.1,0.9-4.7,1.3-7.9,1.3s-5.7-0.3-7.6-1s-3.4-1.7-4.5-3.2c-1.1-1.4-1.9-3.1-2.3-5.1
			s-0.7-4.3-0.7-7.2s0.2-5.2,0.7-7.2s1.2-3.6,2.3-5.1c2.1-2.8,6.1-4.2,11.8-4.2c1.3,0,2.8,0.1,4.5,0.4s3,0.6,3.8,0.9l-1.5,7.6
			c-2.2-0.5-4.1-0.7-5.9-0.7s-3.1,0.2-3.8,0.5s-1.1,1-1.1,2v13.1c1.3,0.3,2.6,0.4,3.9,0.4C143.1,81.6,145.6,81.2,147.8,80.4
			L147.8,80.4z"/>
		<path d="M160.2,89.4h-10.6l8.1-31.2h15.4l8.1,31.2h-10.6l-1.1-4.9h-8.2L160.2,89.4L160.2,89.4z M165.2,67.8l-2.1,8.8h4.6l-2-8.8
			H165.2z"/>
	</g>
	<g>
		<path d="M62.4,34.4c-1.1-0.1-2.2-0.6-3-1.3c-0.9-0.7-1.6-1.6-2-2.7c-0.5-1.1-0.6-2.2-0.4-3.4c0.2-1.1,0.6-2.1,1.3-3
			c0.7-0.9,1.7-1.6,2.8-2c0.9-0.4,1.7-0.5,2.6-0.5c0.8,0,1.6,0.2,2.4,0.5l-0.5,1.1c-1.3-0.6-2.6-0.6-4,0c-0.9,0.4-1.7,0.9-2.3,1.6
			c-0.6,0.7-1,1.5-1.1,2.5s0,1.8,0.3,2.7c0.4,0.9,0.9,1.6,1.6,2.2c0.7,0.6,1.5,0.9,2.5,1c0.9,0.1,1.8,0,2.8-0.4
			c1.4-0.6,2.4-1.5,2.9-2.8l1.1,0.5c-0.3,0.8-0.8,1.4-1.4,2c-0.6,0.6-1.4,1.1-2.2,1.4C64.7,34.4,63.5,34.5,62.4,34.4L62.4,34.4z"/>
		<path d="M86.6,25.9l-7,0.7l-1.2,3.5l-1.4,0.1l4.4-13.1l1.3-0.1l7,11.9l-1.4,0.1C88.5,29.1,86.6,25.9,86.6,25.9z M86,24.9l-3.7-6.4
			l-2.3,7L86,24.9L86,24.9z"/>
		<path d="M97.8,29.2c-0.6-0.4-1-0.9-1.3-1.5l0.9-0.8c0.5,1.1,1.4,1.8,2.5,1.9c1.5,0.2,2.4-0.6,2.7-2.4l1.1-7.6l-4.6-0.7l0.2-1.1
			l5.9,0.9l-1.3,8.6c-0.2,1.3-0.6,2.2-1.3,2.8s-1.7,0.8-2.9,0.6C99,29.8,98.4,29.6,97.8,29.2L97.8,29.2z"/>
		<path d="M122.1,32.9l-6.5-2.7l-2.7,2.5l-1.3-0.5l10.2-9.4l1.2,0.5l0.4,13.9l-1.3-0.5C122.2,36.6,122.1,32.9,122.1,32.9z
			 M122.1,31.7l-0.2-7.4l-5.4,5.1C116.5,29.4,122.1,31.7,122.1,31.7z"/>
	</g>
	<g>
		<path d="M324.8,89.4V58.2H341c3,0,5.1,0.6,6.4,1.8c1.3,1.2,1.9,2.9,1.9,5.1c0,2.2-0.4,4-1.2,5.2s-1.9,2-3.3,2.4v0.3
			c4,0.7,6,3.4,6,8.2c0,2.5-0.7,4.5-2,6c-1.3,1.5-3.4,2.3-6.1,2.3L324.8,89.4L324.8,89.4z M337.9,65h-3.1v4.7h3.1
			c1.3,0,1.9-0.8,1.9-2.3S339.2,65,337.9,65L337.9,65z M338.7,76.9h-3.9V82h3.9c1.4,0,2.1-0.8,2.1-2.6S340.1,76.9,338.7,76.9
			L338.7,76.9z"/>
		<path d="M382.3,89.4h-11l-4.1-9.3h-2.1v9.3h-10V58.2h15.8c7.2,0,10.8,3.7,10.8,10.9c0,5-1.5,8.3-4.6,9.9L382.3,89.4z M365.1,66.2
			v6.2h2.3c1.2,0,2.1-0.1,2.6-0.4c0.5-0.2,0.8-0.8,0.8-1.7v-2.1c0-0.9-0.3-1.5-0.8-1.7c-0.5-0.2-1.4-0.4-2.6-0.4H365.1z"/>
		<path d="M386.5,89.4V58.2h10v31.2H386.5z"/>
		<path d="M420.6,89.4l-7.6-11.1c-0.3-0.4-0.4-1.2-0.5-2.4h-0.2v13.5h-10V58.2h9.4l7.6,11.1c0.3,0.4,0.4,1.2,0.5,2.4h0.2V58.2h10
			v31.2H420.6z"/>
		<path d="M435.7,89.4V58.2h14c5.6,0,9.5,1.2,11.6,3.6c2.1,2.4,3.1,6.4,3.1,12s-1,9.6-3.1,12c-2.1,2.4-6,3.6-11.6,3.6L435.7,89.4
			L435.7,89.4z M449.8,66.2h-4.1v15.2h4.1c1.4,0,2.4-0.2,3-0.5c0.6-0.3,0.9-1,0.9-2.2v-9.9c0-1.1-0.3-1.9-0.9-2.2
			C452.2,66.3,451.2,66.2,449.8,66.2z"/>
		<path d="M468.6,89.4V58.2h10v31.2H468.6z"/>
		<path d="M483.1,88.8l1.4-8.2c3.1,0.8,5.8,1.2,8.3,1.2s4.4-0.1,5.9-0.3v-2.5l-4.5-0.4c-4.1-0.4-6.9-1.3-8.4-2.9
			c-1.5-1.6-2.3-3.9-2.3-7c0-4.3,0.9-7.2,2.8-8.8c1.9-1.6,5-2.4,9.4-2.4s8.4,0.4,12,1.2l-1.2,8c-3.1-0.5-5.6-0.8-7.5-0.8
			s-3.5,0.1-4.8,0.2v2.4l3.6,0.3c4.4,0.4,7.4,1.5,9,3.1c1.7,1.7,2.5,3.9,2.5,6.9c0,2.1-0.3,3.9-0.9,5.3c-0.6,1.4-1.2,2.6-2,3.3
			s-1.9,1.3-3.3,1.7s-2.7,0.6-3.8,0.7c-1.1,0.1-2.5,0.1-4.3,0.1C490.8,90.2,486.8,89.7,483.1,88.8L483.1,88.8z"/>
	</g>
	<g>
		<path d="M389,34.4c-1.1-0.1-2.1-0.6-3-1.3c-0.9-0.7-1.6-1.6-2-2.7s-0.6-2.2-0.4-3.4c0.2-1.1,0.6-2.1,1.4-3c0.7-0.9,1.7-1.6,2.8-2
			c0.9-0.4,1.7-0.5,2.6-0.5c0.9,0,1.6,0.2,2.4,0.5l-0.5,1.1c-1.3-0.6-2.6-0.6-4,0c-0.9,0.4-1.7,0.9-2.3,1.6c-0.6,0.7-1,1.5-1.1,2.5
			c-0.1,0.9,0,1.8,0.3,2.7s0.9,1.6,1.6,2.2c0.7,0.6,1.5,0.9,2.5,1c0.9,0.1,1.9,0,2.8-0.4c1.4-0.6,2.4-1.5,2.9-2.8l1.1,0.5
			c-0.3,0.8-0.8,1.4-1.4,2c-0.6,0.6-1.4,1.1-2.2,1.4C391.3,34.4,390.2,34.5,389,34.4L389,34.4z"/>
		<path d="M413.2,25.9l-7,0.7l-1.2,3.5l-1.4,0.1l4.4-13.1l1.3-0.1l7,11.9l-1.4,0.1L413.2,25.9L413.2,25.9z M412.7,24.9l-3.7-6.4
			l-2.3,7L412.7,24.9L412.7,24.9z"/>
		<path d="M424.5,29.2c-0.6-0.4-1-0.9-1.3-1.5l0.9-0.8c0.5,1.1,1.4,1.8,2.5,1.9c1.5,0.2,2.5-0.6,2.7-2.4l1.1-7.6l-4.6-0.7L426,17
			l5.9,0.9l-1.3,8.6c-0.2,1.3-0.6,2.2-1.4,2.8s-1.7,0.8-2.9,0.6C425.7,29.8,425,29.6,424.5,29.2L424.5,29.2z"/>
		<path d="M448.7,32.9l-6.5-2.7l-2.7,2.5l-1.3-0.5l10.2-9.4l1.2,0.5l0.4,13.9l-1.3-0.5L448.7,32.9L448.7,32.9z M448.7,31.7l-0.2-7.4
			l-5.4,5.1L448.7,31.7L448.7,31.7z"/>
	</g>
	<g>
		<path d="M654.7,80.6v-1.3h-2.5v-7.3h11.6v16c-3.8,1.4-7.7,2.2-11.8,2.2c-5.5,0-9.2-1.3-11.3-4c-1.1-1.4-1.8-3-2.2-4.8
			c-0.4-1.9-0.6-4.2-0.6-6.9s0.2-5,0.7-6.9c0.4-1.8,1.2-3.4,2.3-4.8c2.1-2.7,6.2-4,12.2-4c1.2,0,2.9,0.1,4.9,0.4
			c2,0.3,3.5,0.5,4.4,0.9l-1.4,7.3c-2.6-0.4-4.9-0.7-7-0.7s-3.6,0.2-4.4,0.5s-1.3,1-1.3,1.9v13.6h3.2c1.2,0,2-0.1,2.5-0.4
			S654.7,81.4,654.7,80.6L654.7,80.6z"/>
		<path d="M667.3,74.4c0-5.5,1-9.5,3.1-12c2-2.5,5.7-3.8,11.1-3.8s9,1.3,11.1,3.8c2,2.5,3.1,6.5,3.1,12c0,2.7-0.2,5-0.7,6.9
			c-0.4,1.9-1.2,3.5-2.2,4.8c-1.1,1.4-2.5,2.4-4.4,3s-4.2,1-6.9,1s-5.1-0.3-6.9-1c-1.9-0.6-3.3-1.7-4.4-3c-1.1-1.4-1.8-3-2.2-4.8
			S667.3,77.2,667.3,74.4L667.3,74.4z M677.7,69.4v12.5h4c1.3,0,2.3-0.2,2.9-0.5c0.6-0.3,0.9-1,0.9-2.1V66.9h-4
			c-1.3,0-2.2,0.2-2.8,0.5S677.6,68.3,677.7,69.4L677.7,69.4z"/>
		<path d="M708.6,59.4v22.5h3.4c1.2,0,2-0.2,2.5-0.5c0.5-0.3,0.7-1,0.7-2.1v-20h9.6v16.8c0,2.7-0.2,4.9-0.5,6.6
			c-0.3,1.7-1,3.1-2,4.2c-1,1.2-2.3,1.9-3.9,2.4c-1.7,0.4-3.8,0.7-6.5,0.7s-4.8-0.2-6.5-0.7s-3-1.2-3.9-2.4c-1-1.2-1.6-2.6-2-4.2
			s-0.5-3.9-0.5-6.6V59.4L708.6,59.4L708.6,59.4z"/>
		<path d="M755.7,89.4h-10.6l-3.9-8.9h-2.1v8.9h-9.6v-30h15.1c6.9,0,10.3,3.5,10.3,10.5c0,4.8-1.5,8-4.5,9.5L755.7,89.4L755.7,89.4z
			 M739.1,67.1v6h2.2c1.2,0,2-0.1,2.5-0.4s0.8-0.8,0.8-1.7v-2c0-0.9-0.3-1.4-0.8-1.7s-1.4-0.4-2.5-0.4L739.1,67.1L739.1,67.1z"/>
		<path d="M768.5,89.4h-10l1.8-30h12.5l3.7,15.3h0.3l3.7-15.3h12.5l1.8,30h-10l-0.6-14.5H784l-3.7,14.5h-7.3l-3.7-14.5h-0.3
			L768.5,89.4L768.5,89.4z"/>
		<path d="M818.5,78.1h-9.6v3.7h11.8v7.7h-21.4v-30h21.1l-1.2,7.7h-10.3v4h9.6V78.1z"/>
		<path d="M846.8,67.1h-7v22.3h-9.6V67.1h-7v-7.7h23.5V67.1z"/>
	</g>
	<g>
		<path d="M714.5,34.4c-1.1-0.1-2.2-0.6-3-1.3c-0.9-0.7-1.6-1.6-2-2.7s-0.6-2.2-0.4-3.4c0.2-1.1,0.6-2.1,1.3-3
			c0.7-0.9,1.7-1.6,2.8-2c0.9-0.4,1.7-0.5,2.6-0.5c0.8,0,1.6,0.2,2.4,0.5l-0.5,1.1c-1.3-0.6-2.6-0.6-4,0c-0.9,0.4-1.7,0.9-2.3,1.6
			c-0.6,0.7-1,1.5-1.1,2.5s0,1.8,0.3,2.7c0.4,0.9,0.9,1.6,1.6,2.2c0.7,0.6,1.5,0.9,2.5,1c0.9,0.1,1.8,0,2.8-0.4
			c1.4-0.6,2.4-1.5,2.9-2.8l1.1,0.5c-0.3,0.8-0.8,1.4-1.4,2c-0.6,0.6-1.4,1.1-2.2,1.4C716.8,34.4,715.6,34.5,714.5,34.4L714.5,34.4z
			"/>
		<path d="M738.7,25.9l-7,0.7l-1.2,3.5l-1.4,0.1l4.4-13.1l1.3-0.1l7,11.9l-1.4,0.1L738.7,25.9L738.7,25.9z M738.1,24.9l-3.7-6.4
			l-2.3,7L738.1,24.9L738.1,24.9z"/>
		<path d="M749.9,29.2c-0.6-0.4-1-0.9-1.3-1.5l0.9-0.8c0.5,1.1,1.4,1.8,2.5,1.9c1.5,0.2,2.5-0.6,2.7-2.4l1.1-7.6l-4.6-0.7l0.2-1.1
			l5.9,0.9l-1.3,8.6c-0.2,1.3-0.6,2.2-1.3,2.8c-0.7,0.6-1.7,0.8-2.9,0.6C751.1,29.8,750.5,29.6,749.9,29.2L749.9,29.2z"/>
		<path d="M774.2,32.9l-6.5-2.7l-2.7,2.5l-1.3-0.5l10.2-9.4l1.2,0.5l0.4,13.9l-1.3-0.5L774.2,32.9L774.2,32.9z M774.2,31.7l-0.2-7.4
			l-5.4,5.1L774.2,31.7L774.2,31.7z"/>
	</g>
	<g>
		<path d="M49.4,217.7l1.3-7.9c2.9,0.7,5.6,1.1,7.9,1.1s4.2-0.1,5.7-0.3v-2.4l-4.3-0.4c-3.9-0.4-6.6-1.3-8-2.8
			c-1.5-1.5-2.2-3.8-2.2-6.7c0-4.1,0.9-6.9,2.7-8.4c1.8-1.5,4.8-2.3,9.1-2.3s8.1,0.4,11.5,1.2l-1.2,7.7c-3-0.5-5.4-0.7-7.2-0.7
			c-1.8,0-3.3,0.1-4.6,0.2v2.4l3.5,0.3c4.2,0.4,7.1,1.4,8.7,3s2.4,3.8,2.4,6.6c0,2-0.3,3.7-0.8,5.1c-0.5,1.4-1.2,2.4-1.9,3.2
			s-1.8,1.3-3.2,1.7c-1.4,0.4-2.6,0.6-3.6,0.7c-1,0.1-2.4,0.1-4.2,0.1C56.9,218.9,53,218.5,49.4,217.7L49.4,217.7z"/>
		<path d="M86.2,218.2H76l7.8-30h14.8l7.8,30H96.3l-1.1-4.8h-7.9L86.2,218.2L86.2,218.2z M91,197.4l-2,8.4h4.4l-1.9-8.4H91z"/>
		<path d="M117.1,188.2l2.6,10.6h0.3l2.7-10.6h10.6l-8.6,21.8v8.2h-9.6v-8.2l-8.6-21.8H117.1L117.1,188.2z"/>
		<path d="M31.9,249.6l0.7,8.1c-2,0.8-4.5,1.2-7.6,1.2s-5.5-0.3-7.3-1c-1.8-0.6-3.3-1.6-4.3-3c-1.1-1.4-1.8-3-2.2-4.8
			c-0.4-1.9-0.6-4.1-0.6-6.9s0.2-5,0.6-6.9c0.4-1.9,1.2-3.5,2.2-4.9c2-2.7,5.8-4,11.3-4c1.2,0,2.7,0.1,4.3,0.4
			c1.7,0.2,2.9,0.5,3.7,0.9l-1.4,7.3c-2.1-0.4-4-0.7-5.7-0.7s-2.9,0.2-3.6,0.5c-0.7,0.3-1,1-1,1.9v12.6c1.2,0.3,2.5,0.4,3.8,0.4
			C27.3,250.8,29.8,250.4,31.9,249.6L31.9,249.6z"/>
		<path d="M53.4,258.2v-10.6h-7.2v10.6h-9.6v-30h9.6v10.6h7.2v-10.6H63v30H53.4z"/>
		<path d="M87.7,246.9h-9.6v3.6h11.8v7.7H68.5v-30h21.1l-1.2,7.7H78.1v4h9.6L87.7,246.9L87.7,246.9z"/>
		<path d="M113.8,246.9h-9.6v3.6H116v7.7H94.6v-30h21.1l-1.2,7.7h-10.3v4h9.6L113.8,246.9L113.8,246.9z"/>
		<path d="M119.5,257.7l1.3-7.9c2.9,0.7,5.6,1.1,7.9,1.1s4.2-0.1,5.7-0.3v-2.4l-4.3-0.4c-3.9-0.4-6.6-1.3-8-2.8
			c-1.5-1.5-2.2-3.8-2.2-6.7c0-4.1,0.9-6.9,2.7-8.4c1.8-1.5,4.8-2.3,9.1-2.3s8.1,0.4,11.5,1.2l-1.2,7.7c-3-0.5-5.4-0.7-7.2-0.7
			s-3.3,0.1-4.6,0.2v2.4l3.5,0.3c4.2,0.4,7.1,1.4,8.7,3s2.4,3.8,2.4,6.6c0,2-0.3,3.7-0.8,5.1s-1.2,2.4-1.9,3.2
			c-0.8,0.7-1.8,1.3-3.2,1.7c-1.4,0.4-2.6,0.6-3.6,0.7c-1,0.1-2.4,0.1-4.2,0.1C126.9,258.9,123.1,258.5,119.5,257.7L119.5,257.7z"/>
		<path d="M168.3,246.9h-9.6v3.6h11.8v7.7h-21.4v-30h21.1l-1.2,7.7h-10.3v4h9.6L168.3,246.9L168.3,246.9z"/>
	</g>
	<g>
		<path d="M63.4,163.2c-1.1-0.1-2.2-0.6-3-1.3c-0.9-0.7-1.6-1.6-2-2.7c-0.4-1.1-0.6-2.2-0.4-3.4c0.2-1.1,0.6-2.1,1.3-3
			c0.7-0.9,1.7-1.6,2.8-2c0.9-0.3,1.7-0.5,2.6-0.5c0.8,0,1.6,0.2,2.4,0.5l-0.5,1.1c-1.3-0.6-2.6-0.6-4,0c-0.9,0.4-1.7,0.9-2.3,1.6
			c-0.6,0.7-0.9,1.5-1.1,2.4s0,1.8,0.3,2.7c0.4,0.9,0.9,1.7,1.6,2.2c0.7,0.6,1.6,0.9,2.5,1c0.9,0.1,1.8,0,2.8-0.4
			c1.4-0.6,2.4-1.5,2.9-2.8l1.1,0.5c-0.3,0.8-0.8,1.4-1.4,2s-1.4,1.1-2.2,1.4C65.7,163.2,64.5,163.3,63.4,163.2L63.4,163.2z"/>
		<path d="M87.6,154.7l-7,0.7l-1.2,3.5l-1.4,0.1l4.4-13.1l1.3-0.1l7,11.9l-1.4,0.1L87.6,154.7L87.6,154.7z M87,153.7l-3.7-6.4
			l-2.3,7L87,153.7L87,153.7z"/>
		<path d="M98.8,158c-0.6-0.4-1-0.9-1.3-1.5l0.9-0.8c0.5,1.1,1.4,1.8,2.5,1.9c1.5,0.2,2.4-0.6,2.7-2.4l1.1-7.6l-4.6-0.7l0.2-1.1
			l5.9,0.9l-1.3,8.6c-0.2,1.3-0.6,2.2-1.3,2.8c-0.7,0.6-1.7,0.8-2.9,0.6C100,158.6,99.4,158.4,98.8,158L98.8,158z"/>
		<path d="M123.1,161.7l-6.5-2.7l-2.7,2.5l-1.3-0.5l10.2-9.4l1.2,0.5l0.4,13.8l-1.3-0.5L123.1,161.7L123.1,161.7z M123,160.5
			l-0.2-7.4l-5.4,5.1L123,160.5L123,160.5z"/>
	</g>
	<g>
		<path d="M699.9,232.1v-10.6h-7.2v10.6h-9.6v-30h9.6v10.6h7.2v-10.6h9.6v30H699.9z"/>
		<path d="M722.1,232.1h-10.1l7.8-30h14.8l7.8,30h-10.1l-1.1-4.8h-7.9L722.1,232.1L722.1,232.1z M726.9,211.3l-2,8.4h4.4l-1.9-8.4
			H726.9z"/>
		<path d="M760.7,224.8h-6.2v7.2h-9.6v-30H760c6.9,0,10.3,3.7,10.3,11.1c0,4.1-0.9,7.1-2.7,9c-0.7,0.7-1.6,1.4-2.8,1.9
			C763.6,224.6,762.2,224.8,760.7,224.8z M754.4,209.8v7.4h2.2c1.2,0,2-0.1,2.5-0.4c0.5-0.2,0.8-0.8,0.8-1.7v-3.4
			c0-0.9-0.3-1.4-0.8-1.7c-0.5-0.2-1.4-0.4-2.5-0.4L754.4,209.8L754.4,209.8z"/>
		<path d="M789.7,224.8h-6.2v7.2h-9.6v-30h15.1c6.9,0,10.3,3.7,10.3,11.1c0,4.1-0.9,7.1-2.7,9c-0.7,0.7-1.6,1.4-2.8,1.9
			C792.6,224.6,791.2,224.8,789.7,224.8z M783.4,209.8v7.4h2.2c1.2,0,2-0.1,2.5-0.4c0.5-0.2,0.8-0.8,0.8-1.7v-3.4
			c0-0.9-0.3-1.4-0.8-1.7s-1.4-0.4-2.5-0.4L783.4,209.8L783.4,209.8z"/>
		<path d="M811,202.1l2.6,10.6h0.3l2.7-10.6h10.6l-8.6,21.8v8.2h-9.6v-8.2l-8.6-21.8H811L811,202.1z"/>
	</g>
	<g>
		<path d="M738.4,168.9c0.6,0.4,1,1,1.2,1.8c0.3,1,0.1,1.9-0.5,2.7c-0.6,0.8-1.7,1.4-3.2,1.8l-5.6,1.6l-3.4-12.1l5.2-1.5
			c1.3-0.4,2.5-0.4,3.4-0.1c0.9,0.3,1.5,1,1.8,2c0.2,0.7,0.2,1.3,0,1.9s-0.6,1-1.1,1.4C737.1,168.3,737.8,168.5,738.4,168.9z
			 M728.6,165.3l1.2,4.4l3.9-1.1c1-0.3,1.7-0.7,2.1-1.2c0.4-0.5,0.5-1.2,0.3-1.9c-0.2-0.7-0.6-1.2-1.3-1.4c-0.6-0.2-1.4-0.2-2.4,0.1
			L728.6,165.3L728.6,165.3z M738,172.9c0.4-0.5,0.6-1.2,0.3-2c-0.4-1.5-1.7-2-3.9-1.3l-4.3,1.2l1.3,4.6l4.3-1.2
			C736.8,173.8,737.5,173.4,738,172.9z"/>
		<path d="M752,172c-1-0.6-1.8-1.4-2.3-2.3c-0.6-1-0.8-2.1-0.8-3.3s0.3-2.3,0.9-3.3c0.6-1,1.4-1.7,2.4-2.2c1-0.5,2.2-0.8,3.4-0.8
			s2.4,0.3,3.4,0.9c1,0.6,1.8,1.3,2.3,2.3c0.6,1,0.8,2.1,0.8,3.3c0,1.2-0.3,2.3-0.9,3.3c-0.6,1-1.4,1.7-2.4,2.2
			c-1,0.5-2.1,0.8-3.4,0.8C754.1,172.9,753,172.6,752,172z M758.1,171.1c0.8-0.4,1.5-1,1.9-1.8c0.5-0.8,0.7-1.7,0.7-2.7
			c0-1-0.2-1.9-0.6-2.7c-0.4-0.8-1.1-1.4-1.8-1.9c-0.8-0.5-1.7-0.7-2.7-0.7c-1,0-1.9,0.2-2.7,0.6c-0.8,0.4-1.5,1-1.9,1.8
			c-0.5,0.8-0.7,1.7-0.8,2.7c0,1,0.2,1.9,0.6,2.7c0.5,0.8,1.1,1.4,1.9,1.9s1.7,0.7,2.7,0.7C756.4,171.8,757.3,171.6,758.1,171.1
			L758.1,171.1z"/>
		<path d="M778.7,177.3l-2.2-6.5l-5.5,4.1l-1.5-0.5l6.5-4.7l-2.4-7.2l1.5,0.5l2.1,6.1l5.2-3.8l1.4,0.4l-6.1,4.5l2.6,7.7L778.7,177.3
			L778.7,177.3z"/>
	</g>
	<g>
		<path d="M347.5,234l-7.3-10.7c-0.3-0.3-0.4-1.1-0.5-2.3h-0.2v13h-9.6v-30h9l7.3,10.7c0.3,0.4,0.4,1.1,0.5,2.3h0.2v-13h9.6v30
			C356.5,234,347.5,234,347.5,234z"/>
		<path d="M369.1,234H359l7.8-30h14.8l7.8,30h-10.1l-1.1-4.8h-7.9L369.1,234L369.1,234z M373.9,213.2l-2,8.4h4.4l-1.9-8.4H373.9z"/>
		<path d="M413.2,211.7h-7V234h-9.6v-22.3h-7V204h23.5L413.2,211.7L413.2,211.7z"/>
		<path d="M425.4,204v22.5h3.4c1.2,0,2.1-0.1,2.5-0.5c0.4-0.3,0.7-1,0.7-2.1v-20h9.6v16.8c0,2.7-0.2,4.9-0.5,6.6
			c-0.3,1.7-1,3.1-2,4.2c-1,1.2-2.3,1.9-3.9,2.4c-1.7,0.4-3.8,0.7-6.5,0.7s-4.8-0.2-6.5-0.7c-1.7-0.4-2.9-1.2-3.9-2.4
			c-1-1.1-1.6-2.6-2-4.2s-0.5-3.9-0.5-6.6V204L425.4,204L425.4,204z"/>
		<path d="M472.5,234H462l-3.9-8.9H456v8.9h-9.6v-30h15.1c6.9,0,10.3,3.5,10.3,10.5c0,4.8-1.5,8-4.5,9.5L472.5,234L472.5,234z
			 M456,211.7v6h2.2c1.2,0,2-0.1,2.5-0.4c0.5-0.2,0.8-0.8,0.8-1.7v-2c0-0.9-0.3-1.4-0.8-1.7s-1.4-0.4-2.5-0.4L456,211.7L456,211.7z"
			/>
		<path d="M483.7,234h-10.1l7.8-30h14.8l7.8,30h-10.1l-1.1-4.8h-7.9L483.7,234L483.7,234z M488.5,213.2l-2,8.4h4.4l-1.9-8.4H488.5z"
			/>
		<path d="M525.7,234h-19.2v-30h9.6v22.3h9.6V234z"/>
	</g>
	<g>
		<path d="M411.9,169.9c0.6,0.4,1,1,1.2,1.8c0.3,1,0.1,1.9-0.5,2.7c-0.6,0.8-1.7,1.4-3.2,1.8l-5.6,1.6l-3.4-12.1l5.2-1.5
			c1.3-0.4,2.5-0.4,3.4-0.1c0.9,0.3,1.5,1,1.8,2c0.2,0.7,0.2,1.3,0,1.9c-0.2,0.6-0.6,1-1.1,1.4C410.6,169.3,411.4,169.5,411.9,169.9
			L411.9,169.9z M402.1,166.3l1.2,4.4l3.9-1.1c1-0.3,1.7-0.7,2.1-1.2c0.4-0.5,0.5-1.2,0.3-1.9c-0.2-0.7-0.6-1.2-1.3-1.4
			c-0.6-0.2-1.4-0.2-2.4,0.1L402.1,166.3L402.1,166.3z M411.5,173.9c0.4-0.5,0.6-1.2,0.3-2c-0.4-1.5-1.7-2-3.9-1.3l-4.3,1.2l1.3,4.6
			l4.3-1.2C410.3,174.8,411.1,174.4,411.5,173.9z"/>
		<path d="M425.5,173c-1-0.6-1.8-1.4-2.3-2.3c-0.6-1-0.8-2.1-0.8-3.3s0.3-2.3,0.9-3.3c0.6-1,1.4-1.7,2.4-2.2c1-0.5,2.2-0.8,3.4-0.8
			s2.4,0.3,3.4,0.9c1,0.6,1.8,1.3,2.3,2.3c0.6,1,0.8,2.1,0.8,3.3c0,1.2-0.3,2.3-0.9,3.3c-0.6,1-1.4,1.7-2.4,2.2
			c-1,0.5-2.1,0.8-3.4,0.8C427.7,173.9,426.6,173.6,425.5,173z M431.7,172.1c0.8-0.4,1.4-1,1.9-1.8c0.5-0.8,0.7-1.7,0.7-2.7
			c0-1-0.2-1.9-0.6-2.7c-0.4-0.8-1.1-1.4-1.8-1.9c-0.8-0.5-1.7-0.7-2.7-0.7c-1,0-1.9,0.2-2.7,0.6c-0.8,0.4-1.5,1-1.9,1.8
			c-0.5,0.8-0.7,1.7-0.8,2.7c0,1,0.2,1.9,0.6,2.7c0.4,0.8,1.1,1.4,1.9,1.9s1.7,0.7,2.7,0.7C430,172.8,430.9,172.6,431.7,172.1
			L431.7,172.1z"/>
		<path d="M452.3,178.3l-2.2-6.5l-5.5,4.1l-1.5-0.5l6.5-4.7l-2.4-7.2l1.5,0.5l2.1,6.1l5.2-3.8l1.4,0.4l-6.1,4.5l2.6,7.7L452.3,178.3
			L452.3,178.3z"/>
	</g>
</g>
</svg>
