<?xml version="1.0" encoding="UTF-8"?>
<svg id="Capa_2" data-name="Capa 2" xmlns="http://www.w3.org/2000/svg" viewBox="0 0 434.52 138.38">
  <defs>
    <style>
      .cls-1 {
        fill: #e28eff;
      }
    </style>
  </defs>
  <g id="Capa_1-2" data-name="Capa 1">
    <g>
      <path d="M27.61,44.14c-5.07-.76-7.61-1.18-12.69-2.12,0,6.93,0,10.39,0,17.31C8.95,58.22,5.97,57.6,0,56.22,0,40.67,0,25.13,0,9.58c10.05,2.38,20.36,4.28,30.6,5.67-.75,4.67-1.12,7-1.87,11.67-5.52-.81-8.28-1.26-13.8-2.29,0,2.51,0,3.76,0,6.27,5.07,.94,7.61,1.36,12.69,2.12,0,4.45,0,6.67,0,11.12Z"/>
      <path d="M64.92,65.2c-9.95-.51-19.98-1.4-29.85-2.71,0-15.55,0-31.09,0-46.64,5.97,.77,8.95,1.09,14.92,1.63V52.18c5.97,.54,8.95,.75,14.92,1.08,0,4.78,0,7.16,0,11.94Z"/>
      <path d="M98.87,48.26c-5.97,.08-8.95,.08-14.92-.01v5.67c7.31,.11,10.97,.1,18.28-.04,0,4.78,0,7.16,0,11.94-11.11,.09-22.1-.04-33.21-.41,0-15.55,0-31.09,0-46.64,10.98,.37,21.85,.5,32.83,.42-.75,4.79-1.12,7.18-1.87,11.97-6.42,.09-9.63,.1-16.04,0v6.27c5.97,.09,8.95,.09,14.92,.01v10.82Z"/>
      <path d="M121.78,18.51c2.06,4.88,3.09,7.32,5.15,12.19,.3-.02,.45-.03,.75-.04,2.06-5.1,3.09-7.66,5.15-12.77,6.48-.41,9.72-.65,16.19-1.18-4.15,9.35-6.22,14.02-10.37,23.33,4.15,9.35,6.22,14.01,10.37,23.31-6.63,.54-9.94,.79-16.57,1.2-2.24-5.23-3.36-7.85-5.6-13.1-.27,.01-.4,.02-.67,.04-2.21,5.49-3.31,8.24-5.52,13.71-6.33,.3-9.49,.41-15.82,.56,4.06-9.55,6.09-14.35,10.15-23.97-4.06-9.04-6.09-13.57-10.15-22.67,6.78-.15,10.16-.28,16.94-.61Z"/>
      <path d="M152.75,63.04c0-15.55,0-31.09,0-46.64,5.97-.51,8.95-.79,14.93-1.37,0,15.55,0,31.09,0,46.64-5.97,.58-8.95,.86-14.93,1.37Z"/>
      <path d="M175.14,60.92c0-15.55,0-31.09,0-46.64,9.67-.99,14.51-1.54,24.18-2.63,4.48-.51,7.67,0,9.59,1.51,1.92,1.52,2.87,3.95,2.87,7.28,0,3.33-.61,5.98-1.83,7.94-1.22,1.96-2.85,3.33-4.89,4.11v.45c6.02,.35,9.03,4.11,9.03,11.27,0,3.73-1,6.85-2.99,9.34-1.99,2.49-5.05,3.98-9.18,4.45-10.72,1.22-16.07,1.83-26.79,2.93Zm19.63-38.54c-1.88,.21-2.82,.32-4.7,.52,0,2.78,0,4.16,0,6.94,1.85-.2,2.78-.31,4.63-.52,1.89-.21,2.84-1.48,2.84-3.79s-.92-3.37-2.76-3.16Zm1.12,17.71c-2.33,.26-3.49,.39-5.82,.65v7.61c2.3-.25,3.45-.38,5.75-.64,2.09-.24,3.13-1.62,3.13-4.16s-1.02-3.69-3.06-3.46Z"/>
      <path d="M219.32,55.98c0-15.55,0-31.09,0-46.64,5.97-.69,8.95-1.04,14.92-1.72,0,15.55,0,31.09,0,46.64-5.97,.68-8.95,1.03-14.92,1.72Z"/>
      <path d="M271.55,50.32c-9.96,.93-19.91,1.98-29.85,3.1,0-15.55,0-31.09,0-46.64,5.97-.67,8.95-.99,14.92-1.62,0,11.57,0,23.13,0,34.7,5.97-.62,8.95-.92,14.92-1.49,0,4.78,0,7.16,0,11.94Z"/>
      <path d="M275.65,49.94c0-15.55,0-31.09,0-46.64,5.97-.54,8.95-.8,14.92-1.25,0,15.55,0,31.09,0,46.64-5.97,.46-8.95,.71-14.92,1.25Z"/>
      <path d="M298.04,48.15c0-15.55,0-31.09,0-46.64,8.36-.57,12.54-.8,20.89-1.14,8.41-.33,14.18,1.38,17.31,4.92,3.13,3.55,4.7,9.53,4.7,17.91s-1.57,14.36-4.7,17.98c-3.13,3.62-8.91,5.49-17.31,5.82-8.36,.33-12.54,.57-20.89,1.14Zm21.12-35.84c-2.48,.1-3.72,.15-6.19,.27v22.76c2.48-.12,3.72-.17,6.19-.27,2.04-.08,3.52-.37,4.44-.87,.92-.5,1.38-1.6,1.38-3.29v-14.85c0-1.69-.46-2.76-1.38-3.2-.92-.44-2.4-.63-4.44-.55Z"/>
      <path d="M357.29,46.73c-6.3-.18-9.45-.22-15.75-.2,4.02-15.51,8.05-31.02,12.09-46.53,9.22,.19,13.84,.39,23.06,1.05,4.04,15.89,8.07,31.78,12.09,47.68-6.3-.64-9.45-.89-15.75-1.28-.69-3-1.03-4.5-1.72-7.49-4.93-.29-7.39-.4-12.31-.56-.69,2.93-1.03,4.4-1.72,7.34Zm7.46-32.04c-1.22,5.17-1.84,7.76-3.06,12.93,2.75,.1,4.12,.17,6.87,.31-1.19-5.29-1.79-7.93-2.99-13.21-.33-.02-.49-.02-.82-.04Z"/>
      <path d="M391.62,49.02c0-15.55,0-31.09,0-46.64,8.36,.9,12.54,1.46,20.89,2.84,8.41,1.39,14.18,4.41,17.31,8.67,3.13,4.26,4.7,10.62,4.7,19s-1.57,13.99-4.7,16.89c-3.13,2.9-8.91,3.46-17.31,2.07-8.36-1.38-12.54-1.94-20.89-2.84Zm21.12-31.82c-2.48-.41-3.72-.6-6.19-.97v22.76c2.48,.37,3.72,.56,6.19,.97,2.04,.34,3.52,.36,4.44,.05,.92-.31,1.38-1.31,1.38-3v-14.85c0-1.69-.46-2.86-1.38-3.5-.92-.64-2.4-1.14-4.44-1.47Z"/>
    </g>
    <g>
      <g>
        <path class="cls-1" d="M53.59,97.86v23.11h9.04v2.05h-11.55v-25.16h2.52Z"/>
        <path class="cls-1" d="M83.51,117.05h-11.45l-2.2,5.98h-2.66l9.18-24.84h2.84l9.14,24.84h-2.66l-2.2-5.98Zm-5.72-15.69l-4.97,13.61h9.93l-4.97-13.61Z"/>
        <path class="cls-1" d="M126.63,97.86v25.16h-2.52l-13.93-21.17v21.17h-2.52v-25.16h2.52l13.93,21.13v-21.13h2.52Z"/>
        <path class="cls-1" d="M134.95,97.86h2.52v15.84c0,5.22,2.74,7.34,6.66,7.34s6.59-2.12,6.59-7.34v-15.84h2.52v15.8c0,6.66-4.03,9.61-9.14,9.61s-9.14-2.95-9.14-9.61v-15.8Z"/>
        <path class="cls-1" d="M174.69,99.92h-10.62v9.4h9.54v2.09h-9.54v9.54h10.62v2.09h-13.14v-25.2h13.14v2.09Z"/>
        <path class="cls-1" d="M199.64,97.86h2.66l-9.54,25.16h-2.88l-9.54-25.16h2.74l8.24,22.43,8.31-22.43Z"/>
        <path class="cls-1" d="M223.37,117.05h-11.45l-2.2,5.98h-2.66l9.18-24.84h2.84l9.14,24.84h-2.66l-2.2-5.98Zm-5.72-15.69l-4.97,13.61h9.93l-4.97-13.61Z"/>
        <path class="cls-1" d="M266.49,97.86v25.16h-2.52l-13.93-21.17v21.17h-2.52v-25.16h2.52l13.93,21.13v-21.13h2.52Z"/>
        <path class="cls-1" d="M286.22,123.28c-7.06,0-12.46-5.29-12.46-12.85s5.4-12.85,12.46-12.85,12.45,5.33,12.45,12.85-5.36,12.85-12.45,12.85Zm0-2.2c5.58,0,9.86-4.07,9.86-10.66s-4.28-10.62-9.86-10.62-9.86,4.03-9.86,10.62,4.28,10.66,9.86,10.66Z"/>
        <path class="cls-1" d="M313.55,97.86c5.83,0,8.57,3.17,8.57,7.31,0,3.46-1.94,6.37-6.19,7.16l6.48,10.69h-3.02l-6.23-10.51h-4.64v10.51h-2.52v-25.16h7.56Zm0,2.12h-5.04v10.47h5.08c4.1,0,5.94-2.23,5.94-5.29s-1.73-5.18-5.98-5.18Z"/>
        <path class="cls-1" d="M329.82,98.19h2.66l9.61,21.53,9.61-21.53h2.7v24.84h-2.52v-19.83l-8.86,19.83h-1.84l-8.85-19.76v19.76h-2.52v-24.84Z"/>
        <path class="cls-1" d="M377.41,117.05h-11.45l-2.2,5.98h-2.66l9.18-24.84h2.84l9.14,24.84h-2.66l-2.2-5.98Zm-5.72-15.69l-4.97,13.61h9.93l-4.97-13.61Z"/>
      </g>
      <path class="cls-1" d="M373.16,138.38H58.27c-14.82,0-26.88-12.06-26.88-26.88s12.06-26.88,26.88-26.88H373.16c14.82,0,26.88,12.06,26.88,26.88s-12.06,26.88-26.88,26.88ZM58.27,85.62c-14.27,0-25.88,11.61-25.88,25.88s11.61,25.88,25.88,25.88H373.16c14.27,0,25.88-11.61,25.88-25.88s-11.61-25.88-25.88-25.88H58.27Z"/>
    </g>
  </g>
</svg>