<svg width="498" height="40" xmlns="http://www.w3.org/2000/svg" xmlns:xlink="http://www.w3.org/1999/xlink" xml:space="preserve" overflow="hidden"><defs><clipPath id="clip0"><rect x="68" y="498" width="498" height="40"/></clipPath></defs><g clip-path="url(#clip0)" transform="translate(-68 -498)"><path d="M1.61398 28.7438C1.18136 27.2629 0.965058 26.5141 0.532446 25.0333 1.33943 24.9085 1.74709 24.8419 2.55408 24.7171 3.06156 24.6423 3.36938 24.5258 3.48586 24.3677 3.60233 24.2097 3.65225 24.0349 3.61897 23.827 3.23627 21.223 3.03661 19.9168 2.65391 17.3128 1.82196 17.4376 1.41431 17.4958 0.582363 17.629 0.349418 16.1148 0.232945 15.3577 1.8473e-16 13.8436 2.85358 13.4027 4.28453 13.1947 7.14642 12.812 7.72879 17.1797 8.01997 19.3677 8.60233 23.7354 8.77704 25.0166 8.57737 26.0316 8.01997 26.7887 7.46256 27.5374 6.58902 28.0033 5.37438 28.178 3.86855 28.3943 3.11148 28.5108 1.61398 28.7438Z" fill="#FFFFFF" transform="matrix(1.01117 0 0 1 68.4227 498)"/><path d="M14.792 14.8918C15.183 18.411 15.3744 20.1664 15.7654 23.6772 16.0649 23.6439 16.223 23.6273 16.5225 23.594 17.1131 23.5275 17.5291 23.4276 17.787 23.2779 18.0449 23.1281 18.1531 22.8453 18.1032 22.4126 17.7787 19.2928 17.6206 17.7371 17.2962 14.6173 19.3095 14.4093 20.3161 14.3095 22.3211 14.1348 22.7454 18.9101 22.9534 21.2978 23.3694 26.0649 22.396 26.1481 21.9135 26.198 20.9401 26.2895 20.3245 25.7987 20.0166 25.5574 19.401 25.0666 18.5441 26.3062 17.2213 27.0216 15.4326 27.2213 13.9933 27.3794 12.9118 27.2047 12.1797 26.6889 11.4393 26.1647 10.9817 25.208 10.807 23.7937 10.391 20.4659 10.1747 18.802 9.75873 15.4742 11.7637 15.2246 12.7704 15.0998 14.7754 14.8835Z" fill="#FFFFFF" transform="matrix(1.01117 0 0 1 68.4227 498)"/><path d="M25.7571 29.1265C25.8902 27.6789 25.9567 26.9634 26.0982 25.5158 27.5125 25.8652 29.1348 25.9817 30.9817 25.8569 31.5308 25.8236 31.9218 25.782 32.1464 25.7321 32.1298 25.3993 32.1131 25.2329 32.0965 24.8918 30.6489 24.9834 29.7005 24.9834 29.2512 24.8918 28.7937 24.8003 28.4942 24.7088 28.3527 24.5923 28.203 24.4842 28.1198 24.3927 28.0865 24.3095 28.0532 24.2346 28.0366 24.1181 28.0283 23.9767 28.2612 23.1364 28.3777 22.7121 28.6106 21.8719 27.4126 21.7471 26.4892 21.3893 25.8153 20.782 25.1497 20.1747 24.7504 19.1847 24.6423 17.787 24.5258 16.3977 24.9334 15.3078 25.8652 14.5258 26.797 13.7521 28.386 13.2779 30.624 13.1364 31.4309 13.0865 32.1464 13.0948 32.7787 13.1531 33.619 12.4626 34.0433 12.1215 34.8918 11.4309 36.0067 12.3461 36.5557 12.8037 37.6539 13.7271 37.1048 14.3927 36.8386 14.7255 36.2978 15.391 36.5391 15.9401 36.6805 16.6556 36.7221 17.5291 36.7804 18.7937 36.4975 19.7421 35.8735 20.391 35.2496 21.0399 34.1181 21.4642 32.4709 21.6889 32.4459 21.9218 32.4293 22.0383 32.4043 22.2712 34.1764 22.2629 35.4409 22.4626 36.1814 22.8453 36.9301 23.2363 37.3211 23.9933 37.371 25.1248 37.4542 27.0549 36.5724 28.2862 34.7171 28.8519 33.802 29.1431 32.5541 29.3344 30.9817 29.4343 29.4093 29.5341 27.6705 29.426 25.7571 29.0932ZM29.3095 17.4459C29.3511 18.0699 29.376 18.3777 29.4176 19.0017 29.7255 18.9767 29.8752 18.9684 30.183 18.9517 30.782 18.9101 31.2063 18.827 31.4725 18.6855 31.7388 18.5524 31.8552 18.2696 31.8303 17.8369 31.7887 17.213 31.772 16.9052 31.7388 16.2812 31.4309 16.2978 31.2729 16.3062 30.9651 16.3311 30.3661 16.3727 29.9334 16.4559 29.6672 16.5973 29.401 16.7388 29.2845 17.0216 29.3095 17.4542Z" fill="#FFFFFF" transform="matrix(1.01117 0 0 1 68.4227 498)"/><path d="M43.8519 12.9368C43.9351 16.4725 43.9767 18.2363 44.0599 21.772 44.3677 21.772 44.5175 21.7637 44.817 21.7554 45.4077 21.7471 45.8319 21.6722 46.1065 21.5474 46.3727 21.4226 46.5058 21.1481 46.4975 20.7155 46.4476 17.579 46.4226 16.015 46.3727 12.8785 48.3943 12.8453 49.401 12.8369 51.4226 12.8369 51.4226 17.629 51.4309 20.025 51.4393 24.817 50.4659 24.817 49.9834 24.817 49.01 24.8253 48.4443 24.2845 48.1531 24.01 47.579 23.4775 46.614 24.6423 45.2413 25.2413 43.4443 25.2829 42.005 25.3161 40.9401 25.0499 40.2496 24.4676 39.5591 23.8852 39.1847 22.8869 39.1348 21.4642 39.0017 18.1115 38.9434 16.4393 38.8103 13.0865 40.8236 13.0116 41.8386 12.9784 43.8519 12.9285Z" fill="#FFFFFF" transform="matrix(1.01117 0 0 1 68.4227 498)"/><path d="M59.0433 20.8319C59.0433 21.1647 59.0349 21.3311 59.0266 21.6722 59.5175 21.7304 60.0083 21.7637 60.4992 21.7804 62.0216 21.822 63.5691 21.6306 65.1414 21.2146 65.3245 22.629 65.4077 23.3361 65.5824 24.7587 63.7438 25.1581 61.9384 25.3411 60.1581 25.2912 57.8869 25.2329 56.2562 24.6922 55.2496 23.6356 54.2429 22.579 53.7354 20.9817 53.7521 18.8436 53.7687 16.7055 54.2928 15.1082 55.3494 14.0765 56.406 13.0449 58.1198 12.5374 60.4659 12.5957 62.812 12.6539 64.426 13.0283 65.2912 13.6689 66.1564 14.3095 66.5474 15.4659 66.4725 17.1215 66.4143 18.5275 65.8403 19.5092 64.7671 20.0832 63.6938 20.6572 61.7887 20.8902 59.0266 20.8319ZM59.1265 17.0715C59.1181 17.4626 59.1098 17.6622 59.1015 18.0532 59.5091 18.0616 59.7088 18.0699 60.1165 18.0782 60.7155 18.0948 61.1481 18.0449 61.4226 17.9368 61.6972 17.8286 61.8469 17.5541 61.8552 17.1215 61.8636 16.7304 61.8719 16.5308 61.8885 16.1398 61.4809 16.1314 61.2729 16.1231 60.8652 16.1065 60.2662 16.0898 59.8253 16.1398 59.5507 16.2562 59.2762 16.3727 59.1265 16.6389 59.1181 17.0715Z" fill="#FFFFFF" transform="matrix(1.01117 0 0 1 68.4227 498)"/><path d="M67.995 16.3311C68.0532 15.0998 68.0865 14.4759 68.1448 13.2446 68.6522 13.2696 68.9018 13.2779 69.4093 13.3111 69.4509 12.5458 69.4676 12.1631 69.5092 11.3977 71.5641 11.0233 72.5957 10.8486 74.6589 10.5075 74.5757 11.7471 74.5341 12.371 74.4509 13.619 75.1497 13.6689 75.4908 13.6938 76.1897 13.7438 76.0982 14.975 76.0566 15.5907 75.9651 16.8303 75.2745 16.7804 74.9334 16.7554 74.2429 16.7055 74.0932 18.8852 74.0183 19.975 73.8769 22.1547 74.2928 22.2629 74.7754 22.3544 75.3161 22.421 75.1248 23.8186 75.0333 24.5175 74.8419 25.9151 72.629 25.7571 71.1897 25.5491 70.5408 25.2745 69.7338 24.9334 69.2346 24.5258 69.0433 24.0433 68.9268 23.7521 68.8769 23.411 68.9018 23.0283 69.0433 20.3744 69.1098 19.0516 69.2512 16.3977 68.7521 16.3727 68.5025 16.3561 68.0033 16.3311Z" fill="#FFFFFF" transform="matrix(1.01117 0 0 1 68.4227 498)"/><path d="M82.5873 22.1963C82.5541 22.5291 82.5374 22.6955 82.5125 23.0283 82.995 23.1198 83.4859 23.1947 83.9767 23.2446 85.4908 23.3943 87.0549 23.3195 88.6606 23.02 88.7354 24.4426 88.777 25.1581 88.8436 26.589 86.98 26.8552 85.1664 26.9052 83.386 26.7304 81.1231 26.5058 79.5341 25.8486 78.6106 24.7255 77.6789 23.6023 77.2962 21.9717 77.4626 19.8336 77.6289 17.7038 78.2695 16.1481 79.401 15.1913 80.5324 14.2346 82.2795 13.8602 84.6173 14.0849 86.9551 14.3178 88.5358 14.8003 89.3594 15.4992 90.1747 16.2063 90.4825 17.3794 90.2912 19.0349 90.1248 20.4326 89.4925 21.3727 88.3777 21.8636 87.2712 22.3544 85.3411 22.4542 82.5957 22.1963ZM82.9368 18.4526C82.9035 18.8436 82.8785 19.0433 82.8453 19.4343 83.2529 19.4759 83.4526 19.4925 83.8602 19.5341 84.4509 19.5923 84.8918 19.5757 85.1747 19.4842 85.4576 19.3927 85.624 19.1348 85.6656 18.7022 85.7071 18.3111 85.7238 18.1198 85.7654 17.7288 85.3577 17.6872 85.1497 17.6622 84.7421 17.629 84.1431 17.5707 83.7022 17.5874 83.4193 17.6789 83.1364 17.7704 82.97 18.0366 82.9285 18.4609Z" fill="#FFFFFF" transform="matrix(1.01117 0 0 1 68.4227 498)"/><path d="M94.1098 15.9983C95.2579 15.5824 96.772 15.4992 98.6439 15.7571 100.516 16.0233 102.205 16.5225 103.686 17.2546 103.253 18.5108 103.037 19.1348 102.612 20.3827 101.381 19.8336 100.116 19.4676 98.827 19.2845 98.4276 19.2263 97.8619 19.1764 97.1298 19.1431 97.0882 19.4426 97.0632 19.6007 97.0216 19.9002 99.6922 20.2662 101.456 20.9235 102.288 21.8303 102.704 22.2795 102.978 22.7537 103.103 23.228 103.228 23.7105 103.236 24.2679 103.136 24.9085 103.037 25.5491 102.87 26.1065 102.637 26.589 102.404 27.0715 102.105 27.4376 101.747 27.6872 101.389 27.9368 101.023 28.1364 100.657 28.2696 100.291 28.411 99.8253 28.4775 99.2679 28.4692 98.4027 28.4692 97.396 28.3943 96.2729 28.2363 94.2762 27.9617 92.5042 27.4958 90.9484 26.8386 91.3561 25.5158 91.5557 24.8586 91.9717 23.5358 93.2945 24.1181 94.7421 24.5175 96.3394 24.7338 97.0715 24.8336 97.7454 24.9002 98.3527 24.9168 98.3943 24.6173 98.4193 24.4592 98.4609 24.1597 95.8569 23.7854 94.1015 23.2196 93.1947 22.4293 92.2878 21.6389 91.9218 20.4742 92.1131 18.9268 92.3045 17.3794 92.97 16.3977 94.1098 15.9734Z" fill="#FFFFFF" transform="matrix(1.01117 0 0 1 68.4227 498)"/><path d="M159.027 27.8702C155.191 28.3028 153.278 28.5607 149.468 29.1681 148.527 23.2529 148.062 20.2912 147.121 14.376 149.16 14.0516 150.183 13.9018 152.23 13.6273 152.829 18.0449 153.128 20.2496 153.727 24.6672 155.674 24.401 156.647 24.2845 158.602 24.0599 158.777 25.5824 158.86 26.3478 159.035 27.8702Z" fill="#FFFFFF" transform="matrix(1.01117 0 0 1 68.4227 498)"/><path d="M159.634 14.9834C159.226 14.7504 158.985 14.2845 158.902 13.5691 158.827 12.8536 158.96 12.3295 159.318 12.005 159.676 11.6805 160.424 11.4559 161.564 11.3478 162.704 11.2396 163.486 11.3145 163.894 11.5724 164.301 11.8303 164.534 12.3128 164.592 13.0283 164.651 13.7438 164.501 14.2512 164.143 14.5591 163.785 14.8586 163.045 15.0582 161.922 15.1664 160.799 15.2745 160.033 15.2163 159.626 14.9834ZM160.682 27.6872C160.208 23.1614 159.967 20.8985 159.484 16.3644 161.481 15.9151 162.479 15.6988 164.484 15.2912 164.884 20.0666 165.083 22.4542 165.474 27.2296 163.552 27.3877 162.596 27.4792 160.674 27.6789Z" fill="#FFFFFF" transform="matrix(1.01117 0 0 1 68.4227 498)"/><path d="M168.17 26.4309C167.745 20.4576 167.537 17.4709 167.113 11.4892 169.16 11.198 170.191 11.0649 172.246 10.8236 172.321 12.4126 172.363 13.2113 172.438 14.8003 173.07 14.5175 173.91 14.3511 174.95 14.3095 175.99 14.2679 176.897 14.426 177.646 14.7754 178.403 15.1248 178.977 15.6156 179.376 16.2479 180.116 17.4293 180.499 18.8602 180.516 20.5158 180.549 22.7704 180.033 24.3927 179.01 25.4077 177.978 26.4226 176.423 26.9551 174.309 27.0466 172.196 27.1381 170.158 26.9301 168.17 26.4309ZM172.637 18.7937C172.729 20.7155 172.779 21.6805 172.87 23.6023 173.17 23.5857 173.328 23.5774 173.627 23.5691 174.21 23.5441 174.634 23.4692 174.9 23.3361 175.166 23.203 175.291 22.9285 175.275 22.4958 175.208 20.6156 175.166 19.6839 175.1 17.8037 174.792 17.812 174.634 17.8203 174.326 17.8369 173.96 17.8536 173.669 17.8785 173.453 17.9201 173.236 17.9617 173.045 18.0532 172.887 18.1947 172.729 18.3361 172.646 18.5358 172.637 18.7937Z" fill="#FFFFFF" transform="matrix(1.01117 0 0 1 68.4227 498)"/><path d="M182.829 14.5092C183.844 14.5092 184.351 14.5092 185.366 14.5092 185.923 15.0499 186.198 15.3245 186.747 15.8652 187.754 15.0166 189.018 14.4759 190.532 14.2512 190.599 16.0649 190.632 16.9717 190.691 18.7854 190.291 18.7854 189.767 18.8686 189.126 19.0266 188.486 19.1847 188.045 19.401 187.804 19.6672 187.754 22.4043 187.729 23.777 187.671 26.5225 185.749 26.4892 184.784 26.4809 182.854 26.4809 182.837 21.6889 182.829 19.2928 182.812 14.5008Z" fill="#FFFFFF" transform="matrix(1.01117 0 0 1 68.4227 498)"/><path d="M193.303 25.4908C192.346 24.401 191.889 22.7953 191.972 20.6489 192.055 18.5108 192.629 16.9384 193.727 15.9401 194.825 14.9418 196.572 14.5008 198.943 14.6589 201.314 14.817 202.987 15.4908 203.943 16.6223 204.9 17.7621 205.266 19.3927 205.058 21.5308 204.85 23.6606 204.193 25.1997 203.095 26.1481 201.997 27.0965 200.341 27.4792 198.103 27.3294 195.865 27.1797 194.276 26.5807 193.311 25.4908ZM197.396 19.0765C197.28 20.9484 197.221 21.8885 197.105 23.7604 197.404 23.777 197.562 23.7854 197.862 23.8103 198.444 23.8519 198.877 23.8103 199.151 23.7188 199.426 23.619 199.584 23.3527 199.617 22.9201 199.75 21.0483 199.825 20.1082 199.958 18.2363 199.651 18.2113 199.493 18.203 199.185 18.178 198.586 18.1364 198.145 18.1697 197.862 18.2696 197.579 18.3694 197.421 18.6356 197.396 19.0682Z" fill="#FFFFFF" transform="matrix(1.01117 0 0 1 68.4227 498)"/><path d="M209.16 16.4226C210.308 15.99 211.83 15.8819 213.719 16.1314 215.607 16.381 217.304 16.8802 218.802 17.6123 218.369 18.8686 218.153 19.4925 217.729 20.7488 216.498 20.208 215.225 19.8419 213.927 19.6672 213.527 19.6173 212.962 19.5674 212.221 19.5424 212.18 19.8503 212.163 20 212.121 20.2995 214.8 20.6406 216.564 21.2978 217.396 22.1963 217.812 22.6456 218.087 23.1115 218.211 23.594 218.336 24.0765 218.344 24.6339 218.245 25.2745 218.145 25.9151 217.978 26.4725 217.745 26.9551 217.512 27.4376 217.221 27.8037 216.864 28.0532 216.506 28.3028 216.148 28.5025 215.782 28.6439 215.416 28.7854 214.958 28.8519 214.409 28.8519 213.552 28.8519 212.562 28.7854 211.448 28.6439 209.476 28.386 207.712 27.9534 206.165 27.3294 206.547 25.9983 206.739 25.3328 207.13 24.01 208.453 24.5674 209.9 24.9418 211.481 25.1497 212.213 25.2413 212.879 25.2995 213.486 25.3161 213.527 25.0083 213.544 24.8586 213.586 24.5591 210.99 24.2013 209.235 23.6689 208.328 22.8869 207.413 22.1131 207.03 20.9484 207.196 19.401 207.363 17.8536 208.012 16.8552 209.16 16.4226Z" fill="#FFFFFF" transform="matrix(1.01117 0 0 1 68.4227 498)"/><path d="M270.832 3.57737C272.879 3.31115 273.902 3.18636 275.948 2.95341 275.058 8.48586 274.642 11.2479 273.869 16.7804 271.148 17.1215 269.792 17.3045 267.072 17.7038 264.85 12.579 263.702 10.0333 261.364 4.94176 263.403 4.6173 264.426 4.46755 266.473 4.17637 267.779 7.44592 268.428 9.08486 269.692 12.371 269.775 12.3627 269.817 12.3544 269.908 12.3461 270.258 8.84359 270.449 7.08819 270.84 3.58569Z" fill="#FFFFFF" transform="matrix(1.01117 0 0 1 68.4227 498)"/><path d="M279.85 14.9917C278.777 14.1597 278.128 12.787 277.912 10.8735 277.695 8.96007 278.037 7.4792 278.935 6.43095 279.834 5.39102 281.423 4.75042 283.677 4.54243 285.932 4.33444 287.604 4.67554 288.677 5.54077 289.75 6.40599 290.358 7.79534 290.491 9.71714 290.632 11.6389 290.241 13.1032 289.334 14.1181 288.428 15.1331 286.897 15.7238 284.717 15.9235 282.537 16.1231 280.923 15.8236 279.842 14.9917ZM282.854 8.69384C283.012 10.3744 283.095 11.2146 283.253 12.9035 283.544 12.8785 283.694 12.8619 283.985 12.8369 284.551 12.787 284.958 12.6955 285.208 12.5624 285.458 12.4293 285.566 12.1714 285.532 11.7887 285.383 10.1082 285.308 9.25957 285.158 7.57903 284.859 7.60399 284.709 7.62063 284.418 7.64559 283.844 7.69551 283.428 7.78702 283.178 7.92013 282.928 8.05324 282.82 8.31115 282.854 8.69384Z" fill="#FFFFFF" transform="matrix(1.01117 0 0 1 68.4227 498)"/><path d="M296.972 3.91015C297.138 7.08819 297.221 8.67721 297.388 11.8552 297.679 11.8386 297.829 11.8303 298.12 11.8136 298.686 11.7887 299.093 11.7138 299.351 11.589 299.609 11.4725 299.725 11.2146 299.709 10.8319 299.584 8.01165 299.517 6.60566 299.393 3.78536 301.331 3.69384 302.296 3.66057 304.235 3.60233 304.368 7.91181 304.434 10.0666 304.567 14.376 303.627 14.401 303.161 14.4176 302.23 14.4592 301.664 13.985 301.389 13.7521 300.824 13.2862 299.925 14.3594 298.619 14.9334 296.888 15.0333 295.499 15.1082 294.476 14.9002 293.794 14.3927 293.12 13.8852 292.737 12.995 292.654 11.7221 292.454 8.71048 292.354 7.20466 292.155 4.19301 294.085 4.0599 295.058 4.00998 296.988 3.90183Z" fill="#FFFFFF" transform="matrix(1.01117 0 0 1 68.4227 498)"/><path d="M315.84 10.9983C315.948 12.2379 316.007 12.8619 316.106 14.1015 315.291 14.401 314.251 14.5507 312.97 14.5591 310.782 14.5674 309.201 14.1265 308.203 13.203 307.205 12.2795 306.681 10.8569 306.631 8.93511 306.581 7.01331 307.047 5.56572 308.037 4.60067 309.027 3.63561 310.649 3.13644 312.912 3.12812 314.318 3.12812 315.399 3.27787 316.156 3.57737 315.915 4.75042 315.799 5.33278 315.566 6.50582 314.717 6.34775 314.043 6.26456 313.552 6.27288 312.338 6.27288 311.73 6.66389 311.739 7.42928 311.755 8.97671 311.755 9.7421 311.772 11.2895 312.23 11.3727 312.82 11.4143 313.536 11.406 314.251 11.406 315.017 11.2646 315.84 10.9983Z" fill="#FFFFFF" transform="matrix(1.01117 0 0 1 68.4227 498)"/><path d="M323.17 7.69551C323.103 10.3494 323.07 11.6805 323.003 14.3344 321.131 14.2845 320.191 14.2679 318.319 14.2512 318.386 8.64393 318.411 5.84027 318.478 0.232945 320.433 0.124792 321.414 0.0748752 323.369-2.03202e-15 323.328 1.5807 323.311 2.37105 323.27 3.94343 324.309 3.49418 325.466 3.29451 326.73 3.33611 327.987 3.3777 328.935 3.64393 329.559 4.10982 330.183 4.57571 330.474 5.19967 330.441 5.97338 330.275 9.41764 330.2 11.1398 330.033 14.5923 328.161 14.5008 327.221 14.4676 325.349 14.401 325.449 11.381 325.499 9.87521 325.599 6.85524 325.299 6.84692 325.15 6.8386 324.859 6.83028 324.285 6.81364 323.86 6.85524 323.594 6.95507 323.328 7.05491 323.186 7.30449 323.178 7.68719Z" fill="#FFFFFF" transform="matrix(1.01117 0 0 1 68.4227 498)"/><path d="M337.388 11.3478C337.371 11.6473 337.354 11.797 337.338 12.1048 337.804 12.1797 338.278 12.2379 338.752 12.2712 340.216 12.3794 341.705 12.2795 343.245 11.98 343.361 13.2612 343.419 13.9018 343.536 15.1913 341.755 15.4659 340.008 15.5408 338.294 15.416 336.115 15.2579 334.567 14.6922 333.644 13.6938 332.72 12.6955 332.304 11.2396 332.404 9.3178 332.504 7.39601 333.078 5.99002 334.143 5.10815 335.2 4.22629 336.864 3.85191 339.11 4.0183 341.356 4.18469 342.887 4.58403 343.694 5.20799 344.501 5.82363 344.834 6.8802 344.692 8.36938 344.576 9.63394 343.993 10.4908 342.945 10.9567 341.897 11.4226 340.05 11.5391 337.404 11.3644ZM337.621 7.97005C337.596 8.31947 337.587 8.5025 337.562 8.85191 337.953 8.87687 338.145 8.89351 338.536 8.91847 339.11 8.96007 339.526 8.93511 339.8 8.85191 340.067 8.7604 340.225 8.52745 340.25 8.13644 340.275 7.78702 340.291 7.60399 340.316 7.25458 339.925 7.2213 339.725 7.21298 339.334 7.1797 338.76 7.1381 338.336 7.16306 338.07 7.24626 337.795 7.33777 337.654 7.57072 337.621 7.96173Z" fill="#FFFFFF" transform="matrix(1.01117 0 0 1 68.4227 498)"/><path d="M347.146 5.01664C348.111 5.10815 348.594 5.15807 349.559 5.2579 350.042 5.79035 350.275 6.06489 350.757 6.59734 351.789 5.92346 353.028 5.54908 354.492 5.48253 354.418 7.11314 354.376 7.92845 354.301 9.56739 353.918 9.53411 353.411 9.56739 352.787 9.65058 352.155 9.73378 351.722 9.89185 351.473 10.1082 351.198 12.5624 351.065 13.7854 350.79 16.2396 348.927 16.0316 347.995 15.9318 346.123 15.7571 346.539 11.4642 346.747 9.3178 347.163 5.02496Z" fill="#FFFFFF" transform="matrix(1.01117 0 0 1 68.4227 498)"/><path d="M357.604 6.63062C358.702 6.26456 360.15 6.198 361.947 6.45591 363.744 6.71381 365.358 7.1797 366.797 7.85358 366.398 8.97671 366.198 9.54243 365.799 10.6656 364.609 10.1581 363.394 9.81697 362.155 9.64226 361.772 9.58403 361.231 9.54243 360.524 9.50083 360.483 9.77537 360.466 9.90849 360.433 10.183 363.003 10.5408 364.692 11.1481 365.499 11.9717 365.907 12.3794 366.165 12.8037 366.29 13.2446 366.414 13.6772 366.431 14.1847 366.339 14.7587 366.248 15.3328 366.09 15.8403 365.874 16.2646 365.657 16.6972 365.374 17.0216 365.025 17.2463 364.684 17.4709 364.334 17.6373 363.985 17.7621 363.636 17.8869 363.186 17.9368 362.654 17.9285 361.822 17.9201 360.857 17.8369 359.775 17.6872 357.854 17.421 356.148 16.9884 354.642 16.381 355.025 15.1913 355.216 14.6007 355.607 13.411 356.88 13.9434 358.278 14.3178 359.809 14.5258 360.516 14.6256 361.156 14.6839 361.747 14.7088 361.789 14.4343 361.805 14.3012 361.847 14.0266 359.343 13.6689 357.654 13.1448 356.772 12.421 355.898 11.6972 355.541 10.6489 355.715 9.25957 355.89 7.87022 356.522 6.98835 357.621 6.6223Z" fill="#FFFFFF" transform="matrix(1.01117 0 0 1 68.4227 498)"/><path d="M269.842 39.0932C269.052 33.7604 268.652 31.0982 267.862 25.7571 270.399 25.3827 271.672 25.208 274.218 24.8835 276.78 24.5591 278.594 24.8752 279.659 25.7987 280.724 26.7221 281.381 28.3943 281.631 30.7987 281.88 33.203 281.606 34.975 280.799 36.1065 279.992 37.2379 278.369 37.9368 275.915 38.2529 273.478 38.5607 272.263 38.7354 269.834 39.0932ZM274.725 28.3028C273.977 28.3943 273.611 28.4443 272.862 28.5441L273.735 35.0666C274.468 34.9667 274.834 34.9251 275.557 34.8253 276.156 34.7504 276.589 34.6256 276.839 34.4592 277.096 34.2928 277.188 33.9601 277.13 33.4775 276.922 31.772 276.822 30.9235 276.614 29.218 276.556 28.7354 276.381 28.4359 276.082 28.3361 275.79 28.2363 275.333 28.2196 274.717 28.3028Z" fill="#FFFFFF" transform="matrix(1.01117 0 0 1 68.4227 498)"/><path d="M283.303 25.8735C282.937 25.6656 282.72 25.2413 282.662 24.5923 282.596 23.9517 282.72 23.4775 283.037 23.1864 283.353 22.8952 284.018 22.6955 285.033 22.604 286.048 22.5125 286.739 22.579 287.105 22.812 287.471 23.0366 287.679 23.4775 287.737 24.1181 287.795 24.7671 287.662 25.2246 287.338 25.4908 287.022 25.7654 286.356 25.9401 285.358 26.0399 284.351 26.1314 283.677 26.0815 283.311 25.8652ZM284.185 37.3128C283.777 33.2363 283.569 31.198 283.161 27.1215 284.942 26.7221 285.832 26.5308 287.629 26.1647 287.995 30.4659 288.178 32.6123 288.552 36.9052 286.805 37.0549 285.932 37.1381 284.193 37.3128Z" fill="#FFFFFF" transform="matrix(1.01117 0 0 1 68.4227 498)"/><path d="M290.674 39.6506C290.799 38.3527 290.857 37.7038 290.99 36.406 292.263 36.7221 293.719 36.8303 295.383 36.7221 295.874 36.6889 296.223 36.6556 296.431 36.614 296.414 36.3145 296.406 36.1647 296.389 35.8569 295.092 35.9318 294.235 35.9401 293.827 35.8569 293.419 35.7737 293.145 35.6905 293.02 35.5907 292.887 35.4908 292.812 35.4077 292.779 35.3411 292.754 35.2745 292.737 35.1747 292.72 35.0416 292.928 34.2845 293.037 33.9018 293.253 33.1448 292.18 33.0366 291.348 32.7038 290.749 32.1631 290.15 31.6223 289.8 30.7238 289.701 29.4676 289.601 28.2113 289.967 27.2379 290.807 26.5391 291.647 25.8403 293.07 25.416 295.083 25.2912 295.807 25.2496 296.456 25.2496 297.013 25.3078 297.77 24.6839 298.145 24.376 298.91 23.7604 299.908 24.584 300.408 25 301.389 25.8236 300.898 26.4226 300.657 26.7221 300.166 27.3211 300.383 27.812 300.507 28.4526 300.549 29.2429 300.599 30.3744 300.341 31.2313 299.784 31.8136 299.226 32.396 298.211 32.7787 296.73 32.9784 296.706 33.1864 296.697 33.2945 296.672 33.5025 298.27 33.5025 299.401 33.6772 300.067 34.0266 300.74 34.376 301.098 35.0582 301.14 36.0815 301.215 37.8203 300.416 38.9268 298.752 39.4343 297.928 39.6922 296.805 39.8669 295.391 39.9501 293.977 40.0416 292.404 39.9334 290.691 39.6423ZM293.885 29.1431C293.918 29.7005 293.943 29.9834 293.977 30.5408 294.251 30.5241 294.393 30.5158 294.667 30.4992 295.2 30.4659 295.591 30.391 295.824 30.2662 296.065 30.1414 296.173 29.8918 296.148 29.5008 296.115 28.9434 296.098 28.6606 296.065 28.1032 295.79 28.1198 295.649 28.1281 295.366 28.1448 294.825 28.178 294.434 28.2612 294.201 28.3777 293.96 28.5025 293.852 28.7604 293.877 29.1431Z" fill="#FFFFFF" transform="matrix(1.01117 0 0 1 68.4227 498)"/><path d="M302.887 24.5424C302.537 24.3095 302.346 23.8686 302.321 23.228 302.296 22.579 302.454 22.1215 302.787 21.8469 303.12 21.5724 303.794 21.4226 304.809 21.3893 305.824 21.3561 306.506 21.4725 306.855 21.7221 307.205 21.9717 307.388 22.421 307.404 23.0699 307.421 23.7188 307.255 24.1681 306.922 24.4176 306.589 24.6672 305.915 24.8087 304.917 24.8419 303.91 24.8752 303.236 24.7754 302.887 24.5424ZM303.062 36.015C302.903 31.9218 302.829 29.8752 302.671 25.782 304.468 25.4992 305.374 25.3661 307.18 25.0998 307.28 29.4093 307.329 31.5641 307.438 35.8819 305.691 35.9235 304.809 35.9484 303.062 36.015Z" fill="#FFFFFF" transform="matrix(1.01117 0 0 1 68.4227 498)"/><path d="M309.126 27.8369C309.11 26.7221 309.093 26.1647 309.077 25.0582 309.526 25.0582 309.759 25.0499 310.208 25.0416 310.2 24.3511 310.191 24.01 310.183 23.3195 311.997 22.8619 312.912 22.6373 314.742 22.213 314.742 23.3361 314.742 23.8935 314.742 25.0166 315.366 25.0166 315.682 25.0166 316.306 25.0166 316.306 26.1314 316.298 26.6889 316.289 27.7953 315.666 27.7953 315.358 27.7953 314.742 27.7953 314.742 29.7587 314.742 30.7488 314.742 32.7121 315.125 32.787 315.557 32.8369 316.048 32.8619 315.965 34.1265 315.923 34.7671 315.84 36.0316 313.844 36.0316 312.546 35.9235 311.947 35.7155 311.206 35.4576 310.724 35.1248 310.532 34.6922 310.408 34.4343 310.349 34.1348 310.341 33.7854 310.308 31.3977 310.291 30.1997 310.258 27.812 309.809 27.812 309.584 27.8203 309.135 27.8286Z" fill="#FFFFFF" transform="matrix(1.01117 0 0 1 68.4227 498)"/><path d="M323.702 24.817C327.329 24.9168 329.085 26.2063 328.977 28.5774 328.835 31.5973 328.769 33.1032 328.627 36.1148 327.754 36.0732 327.313 36.0566 326.439 36.0233 325.957 35.5158 325.715 35.2579 325.233 34.7504 324.792 35.2246 324.201 35.5824 323.461 35.8403 322.72 36.0899 322.03 36.2146 321.381 36.198 320.732 36.1814 320.216 36.1231 319.817 36.015 319.426 35.9068 319.043 35.7321 318.661 35.4825 317.837 34.9501 317.429 33.985 317.438 32.579 317.463 29.9917 319.501 28.6938 323.561 28.8103 323.918 28.8186 324.102 28.827 324.459 28.8353 324.468 28.5275 324.476 28.3694 324.484 28.0616 324.01 28.02 323.611 27.995 323.294 27.9867 321.606 27.9368 320.15 28.1115 318.935 28.4775 318.735 27.2379 318.636 26.6223 318.436 25.3827 319.95 24.9584 321.705 24.7671 323.686 24.8253ZM321.938 32.1714C321.93 32.5208 321.922 32.7038 321.913 33.0532 322.28 33.0616 322.454 33.0699 322.82 33.0782 323.469 33.0948 323.885 33.0366 324.077 32.8952 324.268 32.7537 324.359 32.5707 324.368 32.3461 324.384 31.9384 324.384 31.7388 324.401 31.3311 324.035 31.3228 323.852 31.3145 323.494 31.3062 322.962 31.2895 322.571 31.3394 322.321 31.4393 322.072 31.5391 321.947 31.7887 321.938 32.1714Z" fill="#FFFFFF" transform="matrix(1.01117 0 0 1 68.4227 498)"/><path d="M336.248 22.188C335.94 26.6805 335.79 28.9268 335.491 33.4193 335.957 33.5358 336.314 33.6106 336.564 33.6439 336.398 34.9002 336.306 35.5324 336.14 36.7887 334.276 36.6556 333.053 36.4809 332.471 36.2313 331.747 35.9151 331.306 35.5491 331.148 35.1165 331.048 34.8502 330.998 34.5507 331.023 34.2013 331.281 29.4093 331.406 27.0216 331.664 22.2296 333.502 22.1963 334.418 22.188 336.256 22.1797Z" fill="#FFFFFF" transform="matrix(1.01117 0 0 1 68.4227 498)"/><path d="M342.554 33.386C342.529 33.6855 342.512 33.8353 342.488 34.1348 342.92 34.218 343.361 34.2762 343.802 34.3178 345.166 34.4509 346.564 34.376 348.012 34.0932 348.087 35.3744 348.12 36.015 348.195 37.3045 346.522 37.5541 344.884 37.604 343.286 37.4542 341.256 37.2629 339.825 36.6722 338.985 35.6656 338.145 34.6506 337.795 33.1864 337.937 31.2729 338.078 29.3511 338.652 27.9534 339.667 27.0965 340.682 26.2313 342.246 25.8902 344.351 26.0815 346.456 26.2812 347.879 26.7055 348.611 27.3378 349.343 27.97 349.626 29.0266 349.459 30.5075 349.318 31.7637 348.744 32.6123 347.754 33.0616 346.764 33.5108 345.033 33.6023 342.554 33.3777ZM342.862 30.0166C342.829 30.3661 342.812 30.5491 342.779 30.8985 343.145 30.9318 343.328 30.9484 343.694 30.9817 344.226 31.0316 344.626 31.015 344.875 30.9318 345.133 30.8486 345.275 30.6156 345.316 30.2246 345.349 29.8752 345.366 29.7005 345.399 29.3428 345.033 29.3095 344.85 29.2845 344.484 29.2512 343.943 29.2013 343.552 29.218 343.295 29.3012 343.037 29.3844 342.895 29.6256 342.862 30.0083Z" fill="#FFFFFF" transform="matrix(1.01117 0 0 1 68.4227 498)"/><path d="M352.879 27.7704C353.91 27.3877 355.266 27.3045 356.947 27.5291 358.627 27.7537 360.141 28.203 361.489 28.8519 361.106 29.9834 360.915 30.5491 360.541 31.6722 359.434 31.1897 358.294 30.8652 357.13 30.7072 356.772 30.6572 356.265 30.6156 355.599 30.5907 355.566 30.8652 355.541 30.9983 355.507 31.2729 357.912 31.589 359.492 32.1714 360.25 32.9784 360.624 33.386 360.874 33.802 360.99 34.2346 361.106 34.6672 361.115 35.1664 361.032 35.7488 360.94 36.3228 360.799 36.8303 360.591 37.2629 360.383 37.6955 360.116 38.0283 359.792 38.2529 359.468 38.4775 359.143 38.6606 358.81 38.7854 358.478 38.9101 358.062 38.9767 357.562 38.9767 356.78 38.9767 355.882 38.9185 354.867 38.777 353.07 38.5358 351.473 38.1281 350.067 37.5458 350.424 36.3561 350.607 35.7571 350.973 34.5674 352.163 35.0832 353.469 35.4326 354.9 35.624 355.557 35.7072 356.165 35.7654 356.714 35.782 356.755 35.5075 356.772 35.3744 356.805 35.0998 354.459 34.7754 352.879 34.2762 352.063 33.569 351.248 32.8619 350.915 31.8136 351.073 30.4243 351.231 29.0349 351.83 28.1448 352.862 27.7621Z" fill="#FFFFFF" transform="matrix(1.01117 0 0 1 68.4227 498)"/><path d="M411.007 10.9318C409.126 11.1398 408.178 11.2479 406.298 11.4892 406.381 12.1381 406.423 12.4626 406.506 13.1115 408.802 12.8203 409.942 12.6872 412.238 12.4459L412.604 15.8735C408.478 16.3145 406.423 16.5724 402.304 17.1464 401.556 11.8053 401.173 9.14309 400.424 3.802 404.667 3.20299 406.789 2.93677 411.048 2.48752 410.957 3.88519 410.907 4.58403 410.815 5.9817 408.76 6.20632 407.729 6.32279 405.674 6.58902 405.765 7.30449 405.807 7.67055 405.898 8.38602 407.795 8.14476 408.752 8.0366 410.649 7.82862 410.782 9.06822 410.857 9.69218 410.99 10.9401Z" fill="#FFFFFF" transform="matrix(1.01117 0 0 1 68.4227 498)"/><path d="M416.231 4.68386C416.747 5.06656 417.013 5.26622 417.529 5.64892 418.935 4.58403 420.499 3.99334 422.213 3.86855 423.336 3.78536 424.235 3.94343 424.9 4.34276 425.566 4.7421 425.923 5.32446 425.973 6.09817 426.181 9.54243 426.29 11.2646 426.506 14.7088 424.651 14.8253 423.719 14.8835 421.864 15.0333 421.631 12.0216 421.514 10.5158 421.29 7.50416 420.998 7.52912 420.849 7.53744 420.549 7.5624 420.008 7.60399 419.609 7.69551 419.334 7.8203 419.068 7.95341 418.943 8.17804 418.977 8.51081 419.201 11.1897 419.318 12.5291 419.542 15.2163 417.687 15.3744 416.755 15.4576 414.9 15.6406 414.476 11.3478 414.26 9.20133 413.835 4.90849 414.792 4.81697 415.275 4.76705 416.231 4.67554Z" fill="#FFFFFF" transform="matrix(1.01117 0 0 1 68.4227 498)"/><path d="M427.904 6.61398C427.845 5.49917 427.812 4.95008 427.745 3.83527 428.228 3.81032 428.469 3.79368 428.952 3.76872 428.918 3.0782 428.902 2.7371 428.86 2.04659 430.774 1.51414 431.73 1.25624 433.661 0.757072 433.702 1.8802 433.719 2.4376 433.76 3.56073 434.426 3.53577 434.759 3.52745 435.424 3.5025 435.458 4.6173 435.474 5.17471 435.516 6.2812 434.859 6.30616 434.526 6.31448 433.869 6.33943 433.943 8.30283 433.977 9.28452 434.052 11.2562 434.459 11.3145 434.925 11.3478 435.441 11.3561 435.399 12.629 435.374 13.2612 435.333 14.5341 433.211 14.6007 431.822 14.5591 431.181 14.376 430.383 14.1514 429.867 13.8353 429.642 13.411 429.501 13.1614 429.426 12.8619 429.409 12.5125 429.285 10.1248 429.226 8.93511 429.102 6.54742 428.627 6.57238 428.386 6.58902 427.912 6.61398Z" fill="#FFFFFF" transform="matrix(1.01117 0 0 1 68.4227 498)"/><path d="M437.562 3.44426C438.527 3.4193 439.01 3.41098 439.967 3.39434 440.507 3.86855 440.774 4.10982 441.306 4.58403 442.238 3.79368 443.428 3.26955 444.85 3.02829 444.967 4.6589 445.025 5.47421 445.141 7.10483 444.759 7.12146 444.268 7.20466 443.652 7.37105 443.045 7.52912 442.629 7.7371 442.413 7.98669 442.438 10.4493 442.446 11.6889 442.471 14.1514 440.607 14.1681 439.676 14.1847 437.82 14.2346 437.712 9.92513 437.662 7.77038 437.554 3.45258Z" fill="#FFFFFF" transform="matrix(1.01117 0 0 1 68.4227 498)"/><path d="M451.497 10.5158C451.497 10.8153 451.489 10.9651 451.481 11.2729 451.947 11.3228 452.421 11.3561 452.887 11.3644 454.343 11.3977 455.815 11.2313 457.321 10.8486 457.496 12.1215 457.587 12.7621 457.762 14.0349 456.007 14.401 454.285 14.5591 452.579 14.5175 450.408 14.4676 448.852 13.985 447.879 13.0366 446.913 12.0882 446.423 10.6572 446.431 8.72712 446.431 6.797 446.938 5.36606 447.945 4.43428 448.952 3.5025 450.582 3.04493 452.829 3.09484 455.067 3.14476 456.606 3.47754 457.438 4.05158 458.27 4.62562 458.644 5.66556 458.586 7.16306 458.536 8.42762 457.995 9.3178 456.972 9.83361 455.948 10.3494 454.126 10.5657 451.489 10.5158ZM451.564 7.12978C451.564 7.48752 451.556 7.66223 451.547 8.01165 451.938 8.01165 452.13 8.01997 452.521 8.02829 453.086 8.0366 453.511 7.99501 453.769 7.89517 454.035 7.79534 454.168 7.55408 454.185 7.16306 454.193 6.81364 454.201 6.63062 454.21 6.2812 453.819 6.27288 453.619 6.26456 453.228 6.25624 452.654 6.2396 452.238 6.28952 451.972 6.38935 451.705 6.48918 451.572 6.73877 451.564 7.12146Z" fill="#FFFFFF" transform="matrix(1.01117 0 0 1 68.4227 498)"/><path d="M460.025 6.45591C460.075 5.3411 460.1 4.79201 460.15 3.6772 460.632 3.70216 460.874 3.71048 461.356 3.73544 461.389 3.04493 461.406 2.70383 461.439 2.01331 463.394 1.68053 464.376 1.51414 466.348 1.21464 466.273 2.32945 466.24 2.89517 466.165 4.00998 466.83 4.05158 467.163 4.07654 467.82 4.11814 467.745 5.22463 467.704 5.78203 467.629 6.89684 466.972 6.85524 466.639 6.83028 465.982 6.78869 465.857 8.75208 465.79 9.73378 465.666 11.6972 466.065 11.797 466.522 11.8719 467.038 11.9384 466.864 13.1947 466.78 13.827 466.614 15.0832 464.492 14.9418 463.12 14.7504 462.496 14.5092 461.722 14.2013 461.24 13.8353 461.057 13.3943 460.948 13.1281 460.898 12.8286 460.915 12.4792 461.032 10.0915 461.09 8.90183 461.206 6.51414 460.732 6.48918 460.491 6.48087 460.017 6.45591Z" fill="#FFFFFF" transform="matrix(1.01117 0 0 1 68.4227 498)"/><path d="M474.002 11.7471C473.977 12.0466 473.96 12.1963 473.935 12.4958 474.401 12.579 474.867 12.6456 475.333 12.6872 476.78 12.8286 478.27 12.7621 479.8 12.4958 479.884 13.7854 479.925 14.426 480.008 15.7072 478.228 15.9401 476.497 15.9817 474.792 15.8153 472.629 15.6073 471.107 15.0166 470.208 14.0017 469.309 12.9867 468.927 11.5225 469.068 9.60067 469.21 7.67887 469.817 6.28952 470.882 5.42429 471.955 4.56739 473.619 4.22629 475.849 4.4426 478.086 4.65058 479.592 5.09151 480.383 5.73211 481.173 6.36439 481.473 7.42928 481.306 8.91847 481.165 10.1747 480.557 11.0233 479.509 11.4642 478.453 11.9052 476.614 11.9884 473.985 11.7471ZM474.309 8.3777 474.226 9.25957C474.617 9.29284 474.809 9.30948 475.2 9.35108 475.765 9.401 476.19 9.39268 476.456 9.30948 476.73 9.22629 476.88 8.99334 476.922 8.61065 476.955 8.26123 476.972 8.08652 477.013 7.72879 476.622 7.68719 476.431 7.67055 476.04 7.63727 475.466 7.57903 475.05 7.59567 474.775 7.67887 474.501 7.76206 474.351 7.99501 474.318 8.38602Z" fill="#FFFFFF" transform="matrix(1.01117 0 0 1 68.4227 498)"/><path d="M482.496 11.9884C482.604 11.0649 482.662 10.599 482.77 9.67554 482.812 9.29284 482.978 9.0599 483.253 8.98502 483.527 8.91015 483.952 8.90183 484.517 8.97671 486.706 9.25125 487.804 9.39268 489.992 9.7005 489.859 10.624 489.8 11.0815 489.667 12.005 489.609 12.3877 489.451 12.6206 489.176 12.6872 488.902 12.7537 488.486 12.7537 487.92 12.6789 485.757 12.3877 484.667 12.2463 482.504 11.9884Z" fill="#FFFFFF" transform="matrix(1.01117 0 0 1 68.4227 498)"/><path d="M400.973 28.2446C401.481 28.6023 401.739 28.7854 402.246 29.1431 403.486 28.02 404.917 27.3461 406.506 27.1381 407.546 27.005 408.394 27.1131 409.043 27.4792 409.692 27.8369 410.058 28.411 410.15 29.1764 410.557 32.604 410.765 34.3178 411.181 37.7371 409.459 37.9451 408.594 38.0532 406.88 38.2862 406.473 35.2912 406.273 33.802 405.865 30.807 405.591 30.8403 405.458 30.8652 405.183 30.8985 404.684 30.9651 404.309 31.0732 404.068 31.2146 403.827 31.3561 403.727 31.5973 403.777 31.9218 404.16 34.584 404.351 35.9151 404.725 38.5857 403.003 38.8353 402.146 38.9601 400.433 39.2346 399.759 34.975 399.418 32.8453 398.744 28.5857 399.634 28.4443 400.083 28.3777 400.973 28.2446Z" fill="#FFFFFF" transform="matrix(1.01117 0 0 1 68.4227 498)"/><path d="M412.512 26.0399C412.146 25.8319 411.93 25.4077 411.855 24.7671 411.78 24.1265 411.905 23.6522 412.213 23.3611 412.521 23.0699 413.178 22.8619 414.185 22.7621 415.191 22.6539 415.874 22.7205 416.24 22.9451 416.606 23.1697 416.814 23.6023 416.88 24.2512 416.947 24.9002 416.814 25.3577 416.506 25.6323 416.19 25.9068 415.541 26.0982 414.551 26.198 413.561 26.2978 412.879 26.2562 412.521 26.0483ZM413.527 37.4709C413.07 33.4027 412.845 31.3644 412.388 27.2879 414.151 26.8719 415.033 26.6722 416.805 26.2895 417.221 30.5824 417.429 32.7288 417.845 37.0216 416.115 37.188 415.258 37.2795 413.527 37.4709Z" fill="#FFFFFF" transform="matrix(1.01117 0 0 1 68.4227 498)"/><path d="M425.849 28.7937C425.724 28.802 425.666 28.802 425.541 28.8186 425.2 28.8436 424.95 28.8769 424.775 28.9185 424.609 28.9601 424.451 29.0599 424.318 29.218 424.185 29.376 424.126 29.609 424.143 29.9085 424.334 32.5208 424.426 33.8353 424.617 36.4476 422.887 36.5724 422.022 36.6389 420.299 36.797 419.925 32.5042 419.734 30.3494 419.359 26.0566 420.258 25.9817 420.707 25.9401 421.597 25.8652 422.03 26.2313 422.246 26.4143 422.679 26.772 423.519 25.8319 424.684 25.2995 426.173 25.208 427.654 25.1082 428.744 25.3494 429.434 25.8985 430.316 25.2579 431.356 24.9168 432.562 24.8586 433.769 24.8003 434.717 24.9917 435.408 25.4077 436.098 25.8236 436.448 26.4226 436.473 27.1963 436.581 30.6489 436.631 32.371 436.739 35.8153 435.008 35.8652 434.143 35.8985 432.413 35.9817 432.271 32.9617 432.205 31.4559 432.072 28.4443 431.947 28.4443 431.889 28.4526 431.764 28.4609 431.456 28.4775 431.206 28.5025 431.032 28.5358 430.857 28.5774 430.699 28.6606 430.557 28.7937 430.416 28.9268 430.341 29.1265 430.341 29.3844 430.483 32.0549 430.549 33.386 430.682 36.0566 428.952 36.1481 428.087 36.198 426.356 36.3145 426.156 33.3028 426.057 31.797 425.857 28.7854Z" fill="#FFFFFF" transform="matrix(1.01117 0 0 1 68.4227 498)"/><path d="M439.077 24.2845C438.735 24.0516 438.552 23.6023 438.536 22.9617 438.519 22.3211 438.677 21.8552 439.018 21.589 439.351 21.3228 440.025 21.1814 441.032 21.1647 442.038 21.1481 442.72 21.2729 443.062 21.5308 443.403 21.7887 443.577 22.2379 443.586 22.8869 443.594 23.5358 443.428 23.9767 443.087 24.2263 442.754 24.4759 442.088 24.6007 441.09 24.6173 440.091 24.6339 439.426 24.5258 439.077 24.2845ZM439.077 35.7571C438.985 31.6639 438.935 29.609 438.844 25.5158 440.632 25.2579 441.531 25.1414 443.328 24.9085 443.361 29.218 443.378 31.381 443.411 35.6905 441.681 35.7072 440.815 35.7155 439.077 35.7571Z" fill="#FFFFFF" transform="matrix(1.01117 0 0 1 68.4227 498)"/><path d="M450.158 32.0549C450.158 32.3544 450.158 32.5042 450.15 32.812 450.582 32.8619 451.023 32.8869 451.464 32.9035 452.82 32.9285 454.193 32.7537 455.599 32.371 455.765 33.6439 455.849 34.2845 456.007 35.5574 454.376 35.9318 452.77 36.0982 451.181 36.0732 449.16 36.0316 447.712 35.5574 446.805 34.609 445.907 33.6606 445.449 32.2296 445.441 30.3078 445.441 28.3777 445.898 26.9468 446.839 26.0067 447.779 25.0666 449.293 24.609 451.389 24.6506 453.478 24.6922 454.917 25.0166 455.69 25.5824 456.464 26.1481 456.822 27.188 456.764 28.6855 456.714 29.9501 456.215 30.8403 455.266 31.3644 454.318 31.8885 452.621 32.1048 450.166 32.0715ZM450.208 28.6689C450.208 29.0266 450.2 29.2013 450.191 29.5507 450.557 29.5507 450.732 29.5591 451.098 29.5674 451.631 29.5757 452.013 29.5341 452.263 29.426 452.512 29.3261 452.637 29.0765 452.646 28.6938 452.654 28.3444 452.662 28.1614 452.671 27.812 452.304 27.8037 452.121 27.7953 451.755 27.7953 451.223 27.787 450.832 27.8286 450.582 27.9368 450.333 28.0366 450.208 28.2862 450.2 28.6772Z" fill="#FFFFFF" transform="matrix(1.01117 0 0 1 68.4227 498)"/><path d="M461.131 25.3078C461.556 25.7654 461.772 25.99 462.196 26.4476 463.636 25.5907 465.166 25.2163 466.764 25.3328 467.812 25.4077 468.619 25.6905 469.176 26.173 469.742 26.6556 469.983 27.2879 469.925 28.0616 469.642 31.4975 469.501 33.2196 469.218 36.6556 467.487 36.5141 466.622 36.4476 464.9 36.3311 465.1 33.3195 465.2 31.8136 465.408 28.802 465.133 28.7854 464.992 28.777 464.717 28.7604 464.218 28.7271 463.827 28.7604 463.561 28.8519 463.294 28.9434 463.153 29.1514 463.136 29.4842 462.978 32.1714 462.895 33.5108 462.737 36.198 461.007 36.0982 460.141 36.0483 458.411 35.9734 458.602 31.6639 458.702 29.5092 458.894 25.1997 459.792 25.2413 460.241 25.2579 461.14 25.3078Z" fill="#FFFFFF" transform="matrix(1.01117 0 0 1 68.4227 498)"/><path d="M471.631 28.8353C471.73 27.7288 471.78 27.1714 471.872 26.0649 472.321 26.1065 472.546 26.1231 472.995 26.1647 473.062 25.4742 473.087 25.1331 473.153 24.4509 474.992 24.1847 475.915 24.0599 477.77 23.827 477.654 24.9418 477.587 25.4992 477.471 26.614 478.086 26.6805 478.394 26.7138 479.01 26.7804 478.885 27.8869 478.827 28.4359 478.702 29.5424 478.095 29.4759 477.787 29.4426 477.171 29.376 476.963 31.3311 476.855 32.3128 476.647 34.2679 477.013 34.376 477.438 34.4759 477.92 34.5591 477.704 35.807 477.596 36.4393 477.371 37.6872 475.408 37.4709 474.135 37.2296 473.569 36.9634 472.862 36.6306 472.429 36.2479 472.28 35.7987 472.188 35.5324 472.155 35.2246 472.188 34.8835 472.404 32.5042 472.512 31.3145 472.737 28.9351 472.296 28.8935 472.072 28.8769 471.631 28.8353Z" fill="#FFFFFF" transform="matrix(1.01117 0 0 1 68.4227 498)"/><path d="M480.774 36.7471C479.983 35.6988 479.7 34.2263 479.925 32.3128 480.15 30.3993 480.774 29.0266 481.822 28.2113 482.862 27.3877 484.434 27.1131 486.522 27.396 488.611 27.6872 490.042 28.3777 490.824 29.4509 491.606 30.5241 491.839 32.0133 491.539 33.9185 491.24 35.8236 490.557 37.1631 489.517 37.9617 488.478 38.7521 486.963 39.0017 484.958 38.7271 482.953 38.4526 481.564 37.8037 480.774 36.7554ZM484.859 31.2562C484.634 32.9285 484.517 33.7687 484.293 35.4492 484.559 35.4825 484.7 35.5075 484.967 35.5408 485.491 35.6156 485.874 35.6156 486.131 35.5408 486.389 35.4659 486.539 35.2413 486.597 34.8586 486.839 33.1864 486.955 32.3461 487.188 30.6739 486.913 30.6323 486.78 30.6156 486.506 30.574 485.973 30.4992 485.582 30.4992 485.324 30.574 485.067 30.6489 484.917 30.8819 484.859 31.2646Z" fill="#FFFFFF" transform="matrix(1.01117 0 0 1 68.4227 498)"/></g></svg>